<svg width="840" height="197" viewBox="0 0 840 197" fill="none" xmlns="http://www.w3.org/2000/svg">
<path d="M618.748 149.428L618.631 152.611L618.469 149.168C613.983 145.09 608.464 143.039 601.892 143.039C596.192 143.039 591.133 144.669 586.716 147.924L586.744 150.028L586.639 147.986C585.656 148.716 584.708 149.522 583.789 150.408C583.737 150.458 583.689 150.511 583.636 150.561L583.322 163.37L583.159 151.04C578.514 155.812 576.23 161.364 576.314 167.695C576.426 176.197 578.598 182.895 582.828 187.784C583.88 188.997 585.042 190.058 586.314 190.971L586.492 183.947L586.587 191.155C587.345 191.679 588.14 192.144 588.974 192.565L588.834 190.412L589.398 192.78C592.678 194.338 596.539 195.117 600.98 195.117C603.886 195.117 606.569 194.781 609.031 194.123L609.006 192.238L609.151 194.092C613.48 192.914 617.122 190.716 620.077 187.497C624.736 182.42 627.007 175.463 626.89 166.629C626.837 162.613 625.687 158.79 623.44 155.15C622.035 152.934 620.469 151.031 618.753 149.419L618.748 149.428ZM611.099 178.467C609.027 180.356 605.974 181.301 601.94 181.301C598.312 181.301 595.372 180.177 593.119 177.934C590.867 175.691 589.72 172.893 589.676 169.539C589.628 165.949 590.983 162.927 593.73 160.469C596.482 158.011 599.798 156.784 603.682 156.784C607.256 156.784 609.884 158.046 611.549 160.576C613.22 163.101 614.077 166.374 614.13 170.39C614.176 173.887 613.166 176.577 611.094 178.467H611.099Z" fill="white"/>
<path fill-rule="evenodd" clip-rule="evenodd" d="M635.685 143.024C635.688 143.024 635.69 143.024 635.693 143.023H635.685L635.685 143.024ZM635.685 143.024C634.642 143.052 633.596 143.118 632.554 143.226C631.163 143.369 630.363 143.68 630.166 144.158C630.015 144.493 629.944 145.065 629.955 145.878L629.987 148.314C629.996 148.981 629.999 150.045 629.992 151.501C629.985 152.956 629.989 154.139 630.001 155.046C629.984 157.72 629.999 160.836 630.047 164.396C630.094 167.956 630.112 171.226 630.099 174.21C630.085 177.194 630.054 180.478 629.996 184.059C629.962 185.493 629.961 187.402 629.993 189.789L630.025 192.152C630.051 194.11 630.502 195.087 631.381 195.087H632.906L635.685 143.024ZM661.16 143.851C662.244 143.876 663.044 143.886 663.562 143.886L663.562 143.893C664.853 143.893 665.506 144.49 665.522 145.684L665.529 146.186C665.383 154.782 665.385 164.572 665.532 175.555L665.771 193.462C665.782 194.275 665.013 194.68 663.461 194.68H662.918C662.091 194.68 660.645 194.645 658.579 194.572C656.513 194.498 655.04 194.463 654.16 194.463C653.077 194.463 651.551 192.432 649.586 188.373C648.418 185.941 646.938 182.549 645.151 178.204C643.364 173.858 642.283 171.255 641.909 170.396C641.881 172.211 641.766 178.898 641.558 190.453C641.562 190.74 641.558 191.336 641.544 192.244C641.53 193.151 641.502 193.915 641.457 194.537C641.41 194.917 640.921 195.109 639.993 195.109H634.847L636.897 143.031C638.83 143.031 640.28 143.056 641.236 143.101C641.96 143.101 642.455 143.387 642.719 143.96C643.252 145.108 646.603 152.367 652.773 165.737C653.001 155.707 653.152 149.449 653.221 146.968C653.297 144.724 654.003 143.6 655.347 143.6C655.86 143.6 656.223 143.621 656.431 143.67C656.847 143.719 657.467 143.754 658.294 143.778C659.121 143.803 660.076 143.827 661.16 143.851Z" fill="white"/>
<path d="M831.203 185.555C831.027 184.243 830.6 183.59 829.916 183.59C829.339 183.59 828.395 183.58 827.081 183.555C825.766 183.531 824.822 183.52 824.245 183.52C823.248 183.52 822.157 183.545 820.976 183.594C819.795 183.643 818.731 183.667 817.787 183.667C816.896 183.667 816.355 183.569 816.168 183.374C815.98 183.178 815.882 182.62 815.87 181.699L815.804 176.746C815.795 176.115 815.869 175.738 816.026 175.619C816.183 175.497 816.548 175.413 817.125 175.364C817.809 175.364 819.213 175.34 821.338 175.291C823.466 175.242 824.87 175.218 825.55 175.218C826.704 175.169 827.424 175.061 827.712 174.89C828.001 174.719 828.139 174.321 828.131 173.689L828.01 164.657C828.002 164.074 827.933 163.711 827.799 163.565C827.665 163.418 827.336 163.345 826.811 163.345C825.814 163.345 824.343 163.394 822.4 163.491C820.457 163.589 819.015 163.638 818.068 163.638C817.071 163.638 816.397 163.53 816.055 163.31C815.708 163.09 815.531 162.57 815.52 161.743C815.508 160.773 815.484 159.897 815.448 159.122C815.411 158.347 815.387 157.422 815.373 156.354C815.366 155.82 815.729 155.555 816.465 155.555C817.409 155.555 818.737 155.531 820.443 155.482C822.149 155.433 823.421 155.408 824.262 155.408C824.893 155.408 825.878 155.374 827.213 155.3C828.552 155.227 829.564 155.192 830.243 155.192C830.715 155.192 831.004 155.059 831.106 154.791C831.208 154.525 831.254 154.002 831.244 153.224L831.198 149.8C831.182 148.585 831.049 146.572 830.804 143.755C830.744 143.172 830.189 142.883 829.139 142.883C827.976 142.883 826.149 142.893 823.669 142.918L823.542 147.21L823.484 142.918C823.45 142.918 823.424 142.918 823.39 142.918C823.318 142.918 823.25 142.918 823.178 142.918L823.059 149.821L822.967 142.921C820.555 142.942 818.72 142.953 817.482 142.953C816.013 142.953 813.82 142.942 810.905 142.918C807.99 142.893 805.85 142.883 804.483 142.883C804.064 142.883 803.764 143.005 803.582 143.246C803.4 143.49 803.264 144.024 803.169 144.848C802.845 148.003 802.702 151.161 802.744 154.316C802.761 155.579 802.796 157.373 802.854 159.705C802.911 162.036 802.944 163.662 802.957 164.584C802.986 166.817 802.949 169.948 802.844 173.979C802.739 178.01 802.702 181.165 802.733 183.447C802.788 187.576 802.854 190.535 802.93 192.333C802.943 193.31 803.277 193.976 803.916 194.346L803.799 185.576L804.14 194.462C804.232 194.5 804.326 194.535 804.429 194.563L804.535 175.626L804.788 194.636C804.837 194.643 804.883 194.657 804.932 194.664C808.774 195.1 814.134 195.32 821.012 195.32H828.732C829.099 195.32 829.649 195.271 830.384 195.174C831.431 194.978 831.949 194.493 831.939 193.718C831.9 190.804 831.652 188.085 831.2 185.562L831.203 185.555Z" fill="white"/>
<path d="M794.062 188.832L794.114 192.773C794.279 192.659 794.444 192.545 794.604 192.421L794.259 166.564C793.429 165.726 792.431 164.788 791.262 163.747C789.214 161.923 787.765 160.582 786.916 159.717C785.426 158.134 784.671 156.745 784.655 155.545C784.645 154.776 784.902 154.201 785.421 153.818C785.941 153.435 786.516 153.208 787.145 153.135C787.775 153.063 788.639 153.029 789.745 153.029H792.108C792.425 153.029 792.95 153.039 793.683 153.063C794.419 153.087 794.971 153.097 795.337 153.097C796.228 153.097 796.802 152.87 797.061 152.415C797.319 151.96 797.437 151.181 797.422 150.077C797.39 147.678 797.123 145.52 796.626 143.603C796.458 142.931 796.007 142.524 795.269 142.379C792.793 141.851 790.4 141.586 788.09 141.586C786.353 141.586 784.706 141.786 783.156 142.179L782.986 148.716L782.9 142.244C780.891 142.786 779.038 143.655 777.344 144.861C774.273 147.044 772.445 149.767 771.858 153.025C771.709 153.746 771.639 154.463 771.649 155.183C771.685 157.917 772.321 160.317 773.557 162.378C774.792 164.44 776.607 166.612 779.001 168.891C781.394 171.17 782.937 172.739 783.632 173.604C784.004 174.083 784.606 174.79 785.434 175.728C786.262 176.662 786.726 177.203 786.834 177.348C787.581 178.21 787.958 179.003 787.968 179.723C787.98 180.634 787.623 181.344 786.894 181.847C786.164 182.35 785.303 182.602 784.303 182.602C783.095 182.602 781.245 181.788 778.755 180.158C778.278 179.775 777.829 179.582 777.407 179.582C777.142 179.582 776.649 179.989 775.928 180.806C775.463 181.333 774.768 182.437 773.847 184.116C772.925 185.795 772.387 186.753 772.231 186.994C772.025 187.377 771.922 187.594 771.923 187.643C771.926 187.884 772.115 188.146 772.485 188.432C772.752 188.673 773.283 189.153 774.078 189.87C774.877 190.59 775.514 191.118 775.991 191.452C779.123 193.945 782.447 195.193 785.966 195.193C788.382 195.193 790.764 194.593 793.111 193.393C793.426 193.224 793.729 193.035 794.025 192.835L794.058 188.835L794.062 188.832Z" fill="white"/>
<path d="M795.851 168.287C795.437 167.797 794.931 167.249 794.342 166.656L794.942 192.148C796.092 191.176 797.065 189.941 797.853 188.431C799.031 186.177 799.789 183.849 800.124 181.453C800.267 180.302 800.332 179.247 800.319 178.288C800.293 176.323 799.93 174.606 799.227 173.145C798.524 171.683 797.4 170.062 795.851 168.287Z" fill="white"/>
<path d="M759.412 143.941C759.342 143.852 759.272 143.778 759.199 143.729C758.956 143.556 758.52 143.447 757.883 143.398C748.594 143.056 742.436 142.883 739.411 142.883H739.331C738.534 142.883 737.983 143.348 737.679 144.279C736.73 148.595 733.875 163.337 729.115 188.499C729.013 188.841 728.86 189.38 728.66 190.117C728.456 190.854 728.308 191.514 728.209 192.103C728.11 192.691 728.065 193.256 728.072 193.795C728.081 194.483 728.642 194.825 729.756 194.825C730.233 194.825 731.401 194.885 733.26 195.008C733.577 195.029 733.863 195.047 734.134 195.064L734.303 184L734.268 195.071C735.524 195.149 736.31 195.191 736.608 195.191H737.641C739.815 195.191 740.955 194.849 741.049 194.162C741.197 193.231 741.389 191.965 741.635 190.371C741.881 188.778 742.113 187.328 742.332 186.031C742.555 184.73 742.764 183.517 742.959 182.388C743.107 181.507 743.684 181.013 744.69 180.918C745.75 180.869 747.248 180.819 749.185 180.77C751.122 180.721 752.62 180.647 753.679 180.548H753.839C754.69 180.548 755.257 181.285 755.539 182.755C755.713 183.735 755.995 185.195 756.395 187.134C756.791 189.07 757.104 190.505 757.326 191.44C757.382 191.637 757.451 191.969 757.537 192.434C757.624 192.899 757.693 193.256 757.75 193.502C757.807 193.749 757.955 193.982 758.198 194.201C758.441 194.423 758.748 194.532 759.118 194.532H759.499L759.408 143.941H759.412ZM752.034 170.474C749.433 170.474 747.471 170.375 746.141 170.181C745.396 170.083 745.022 169.79 745.016 169.3L745.013 169.078C746.801 159.857 747.768 154.878 747.918 154.141C748.018 153.602 748.224 153.33 748.544 153.33C748.914 153.33 749.184 153.553 749.35 153.993C751.63 161.892 752.969 166.796 753.369 168.707C753.482 169.198 753.539 169.494 753.541 169.589C753.548 170.178 753.049 170.47 752.038 170.47L752.034 170.474Z" fill="white"/>
<path d="M770.616 184.89C769.34 180.722 767.608 174.125 765.416 165.098C763.281 156.305 761.48 149.683 760.01 145.219L759.847 194.53L763.955 194.53L763.913 191.336L764.234 194.53L765.569 194.53L765.617 190.116L765.675 194.53C766.457 194.53 767.453 194.555 768.674 194.604C769.949 194.654 770.876 194.678 771.46 194.678C772.15 194.678 772.489 194.361 772.481 193.723C772.475 193.331 772.445 193.06 772.39 192.915C771.315 187.862 770.723 185.19 770.612 184.894L770.616 184.89Z" fill="white"/>
<path d="M720.975 169.952C720.546 169.704 720.327 169.434 720.323 169.14C720.322 169.041 720.375 168.941 720.481 168.842C721.004 168.1 721.449 167.508 721.82 167.064C724.506 164.151 725.817 160.574 725.761 156.326C725.731 154.105 725.332 152.143 724.561 150.439C723.79 148.736 722.624 147.366 721.063 146.33C719.503 145.294 717.86 144.442 716.143 143.775C715.386 143.481 714.527 143.225 713.584 143.002L713.56 149.896L713.468 142.973C712.301 142.704 711.001 142.487 709.556 142.328C706.88 142.029 704.463 141.834 702.297 141.735C700.135 141.636 697.478 141.586 694.326 141.586C692.188 141.586 691.13 142.228 691.147 143.513C691.173 145.44 691.242 148.623 691.355 153.065C691.468 157.508 691.537 160.666 691.562 162.543C691.606 165.85 691.736 170.726 691.957 177.167C692.177 183.607 692.307 188.507 692.352 191.864C692.361 192.556 692.394 192.975 692.45 193.124C692.506 193.323 692.574 193.493 692.656 193.642C692.739 193.791 692.848 193.912 692.98 194.011C693.115 194.111 693.251 194.185 693.382 194.235C693.517 194.284 693.702 194.334 693.944 194.384C694.187 194.433 694.372 194.469 694.506 194.494C694.641 194.519 694.868 194.543 695.187 194.568C695.506 194.593 695.721 194.604 695.828 194.604C696.904 194.689 698.026 194.763 699.174 194.827L698.907 174.782L699.539 194.849C699.666 194.856 699.793 194.863 699.92 194.87L699.872 191.314L700.035 194.873C704.018 195.086 708.407 195.193 713.221 195.193H715.305C716.875 195.175 718.323 194.976 719.646 194.607L719.696 189.441L719.765 194.572C721.764 193.997 723.479 193.021 724.907 191.637C727.306 189.317 728.508 186.453 728.516 183.046L728.493 181.343C728.46 178.873 727.725 176.666 726.282 174.715C724.84 172.766 723.072 171.173 720.971 169.938L720.975 169.952ZM703.478 155.145C703.469 154.502 703.61 154.109 703.903 153.959C704.193 153.81 704.795 153.736 705.704 153.736C708.107 153.736 709.807 153.97 710.8 154.439C711.793 154.907 712.302 156.007 712.325 157.735C712.342 158.97 711.984 160.081 711.249 161.067C710.254 162.447 708.26 163.139 705.269 163.139C704.256 163.139 703.742 162.866 703.735 162.327C703.598 160.155 703.517 158.108 703.492 156.181L703.478 155.145ZM713.599 184.466C712.995 185.158 712.186 185.576 711.175 185.725C710.589 185.825 709.734 185.874 708.613 185.874H707.972C706.529 185.874 705.46 185.775 704.763 185.58C704.227 185.431 703.955 185.136 703.949 184.693L703.948 184.618C703.938 183.926 703.912 182.791 703.864 181.212C703.816 179.633 703.789 178.497 703.78 177.805C703.769 177.014 704.724 176.62 706.647 176.62C711.825 176.62 714.439 178.373 714.486 181.879C714.5 182.915 714.204 183.781 713.599 184.469L713.599 184.466Z" fill="white"/>
<path d="M719.099 24.6886C708.316 36.6032 703.499 53.9498 704.651 76.7624C705.265 88.92 707.763 99.4956 712.13 108.501C714.179 112.71 716.811 116.507 719.984 119.916L719.099 24.6886Z" fill="white"/>
<path d="M734.903 13.3331C728.713 16.2469 723.596 19.8924 719.512 24.2603L721.154 121.163C722.941 122.949 724.891 124.626 727.003 126.182L726.826 111.58L727.584 126.585C729.286 127.809 731.056 128.973 732.975 130.05C734.837 131.097 736.776 132.015 738.795 132.839L734.917 13.3325L734.903 13.3331Z" fill="white"/>
<path d="M811.516 14.6077L811.319 20.9817L810.731 14.0551C800.939 7.30505 789.02 4.24347 774.919 4.89558C765.882 5.3135 757.775 6.37925 750.555 8.06088L750.473 10.0579L750.374 8.10319C749.446 8.31601 748.532 8.55079 747.633 8.78492L747.338 23.2157L746.623 9.05813C743.221 10.0082 740.038 11.1068 737.073 12.3651L740.028 133.319C748.089 136.344 757.422 137.611 768.039 137.12C772.46 136.915 776.592 136.543 780.506 136.022L781.103 133.424L781.23 135.932C783.138 135.663 784.987 135.351 786.778 135.007L786.451 128.522L787.555 134.847C792.164 133.932 796.382 132.762 800.151 131.32C805.335 129.291 809.927 126.926 813.929 124.261L813.871 115.339L814.567 123.847C821.452 119.134 826.564 113.461 829.874 106.819C835.184 96.1767 837.362 81.557 836.422 62.9589C835.579 46.2704 829.652 32.2067 818.642 20.7676C816.408 18.4473 814.032 16.394 811.501 14.5858L811.516 14.6077ZM795.697 95.6131C790.631 100.808 781.607 103.705 768.625 104.306C764.051 104.517 760.324 104.033 757.46 102.852C754.582 101.671 751.594 99.4194 748.468 96.0985C743.604 90.5815 740.936 83.2981 740.479 74.2476C739.991 64.5871 742.643 56.2876 748.433 49.3265C754.223 42.3655 762.951 38.6209 774.604 38.082C780.508 37.809 785.632 39.5992 789.964 43.4647C794.296 47.3302 797.405 51.6939 799.278 56.5678C801.15 61.4416 802.213 66.3756 802.466 71.3811C803.02 82.3523 800.764 90.4297 795.698 95.6244L795.697 95.6131Z" fill="white"/>
<path fill-rule="evenodd" clip-rule="evenodd" d="M656.557 17.6227L656.117 8.90846C669.951 12.871 681.566 21.565 690.951 34.9911C697.132 44.0428 700.478 53.7222 700.998 64.0112C702.141 86.6505 696.905 104.761 685.288 118.342C681.288 123.023 676.714 126.941 671.598 130.122L670.755 117.081L671.24 130.343L670.969 130.505L670.969 130.506C670.486 130.797 670.007 131.086 669.513 131.362L668.816 124.487L669.173 131.547C659.948 136.7 649.035 139.581 636.422 140.164C615.984 141.109 600.049 135.568 588.606 123.541C586.184 121.001 584.013 118.22 582.055 115.242L579.681 37.2902C581.923 33.9587 584.539 30.7164 587.549 27.5888C600.244 14.3831 615.68 7.35555 633.858 6.51489C641.731 6.15083 649.059 6.92926 655.851 8.84093L656.557 17.6227ZM569.796 72.7807C569.18 60.5897 572.083 49.3709 578.485 39.1165L581.361 114.128C574.5 103.183 570.636 89.413 569.796 72.7807ZM665.631 91.7379C663.981 93.9158 662.07 95.8925 659.93 97.6361L659.328 98.1207C650.955 104.653 639.426 107.668 627.82 105.38C609.211 101.71 597.096 85.7018 599.592 68.8733L646.537 78.1388L647.848 72.7178L600.903 63.4522C603.519 55.7628 609.034 49.4773 616.086 45.3822L616.743 45.0091C621.443 42.401 626.8 40.7598 632.426 40.2941L633.399 40.2262C636.693 40.0358 640.067 40.2529 643.447 40.9189C650.779 42.3616 657.099 45.7241 661.919 50.2981L662.051 50.4291C664.199 52.4846 666.042 54.7826 667.536 57.2566L667.691 57.516C667.973 57.9902 668.24 58.4728 668.498 58.9558L668.563 59.0822C671.845 65.4253 672.934 72.7683 671.146 80.153C670.442 83.0638 669.336 85.795 667.887 88.3214L667.503 88.9788C667.141 89.5894 666.754 90.1784 666.35 90.7606L665.631 91.7379Z" fill="white"/>
<path d="M545.068 105.055C543.543 104.179 542.76 103.221 542.755 102.179C542.754 101.832 542.934 101.485 543.331 101.138C545.221 98.5265 546.842 96.4273 548.175 94.8571C557.875 84.5596 562.693 71.9316 562.629 56.9234C562.595 49.0722 561.225 42.1466 558.52 36.1301C555.814 30.1136 551.682 25.2707 546.125 21.6178C540.567 17.9484 534.723 14.9402 528.61 12.5931C522.497 10.246 514.666 8.54349 505.136 7.50218L504.368 31.2706L503.849 7.36995C495.823 6.51045 488.45 5.89888 481.729 5.55177L477.369 6.57657L470.354 5.1055C464.885 4.97326 458.727 4.89062 451.936 4.89062L451.542 6.04764L451.374 4.89062C451.121 4.89062 450.885 4.89062 450.632 4.89062C450.143 4.89062 449.708 4.92368 449.237 4.94021L449.024 14.4278L448.024 4.98979C442.122 5.46913 439.18 7.70053 439.197 11.684C439.226 18.4773 439.364 29.7335 439.631 45.4359C439.897 61.1383 440.035 72.2952 440.063 78.9233C440.113 90.6092 440.422 107.832 441.008 130.592C441.575 153.353 441.903 170.658 441.953 182.509C441.964 184.956 442.061 186.427 442.262 186.956C442.446 187.65 442.702 188.262 442.994 188.79C443.286 189.319 443.668 189.749 444.141 190.096C444.613 190.443 445.103 190.708 445.575 190.89C446.046 191.055 446.717 191.237 447.587 191.419C448.457 191.6 449.11 191.716 449.599 191.815C450.07 191.898 450.886 191.997 452.027 192.08C453.168 192.162 453.947 192.212 454.328 192.212C457.987 192.493 461.809 192.741 465.704 192.972L465.045 187.121L468.131 193.121C475.033 193.501 482.278 193.782 489.885 193.981L494.389 192.592L505.715 194.261C509.264 194.295 512.85 194.311 516.544 194.311H523.988C525.744 194.295 527.446 194.212 529.112 194.063L529.016 171.683L531.719 193.799C542.506 192.443 551.436 188.427 558.47 181.766C567.128 173.567 571.522 163.452 571.67 151.419L571.644 145.402C571.607 136.692 569.038 128.873 563.956 121.997C558.856 115.105 552.584 109.485 545.104 105.121L545.068 105.055ZM482.945 52.7416C482.935 50.4771 483.454 49.0722 484.502 48.5598C485.551 48.0309 487.705 47.7829 490.946 47.7829C499.549 47.7829 505.619 48.6094 509.157 50.2623C512.696 51.9152 514.487 55.7994 514.513 61.8986C514.532 66.2622 513.208 70.1795 510.561 73.6671C506.942 78.5431 499.799 80.9894 489.096 80.9894C485.474 80.9894 483.64 80.0307 483.632 78.1134C483.219 70.444 482.989 63.2044 482.96 56.3945L482.945 52.7251L482.945 52.7416ZM518.212 156.328C516.031 158.774 513.121 160.245 509.484 160.774C507.384 161.121 504.324 161.303 500.322 161.303H498.022C492.861 161.303 489.038 160.956 486.554 160.262C484.632 159.733 483.686 158.691 483.679 157.121L483.678 156.857C483.668 154.41 483.596 150.41 483.482 144.824C483.368 139.237 483.296 135.237 483.286 132.791C483.277 130.84 484.975 129.601 488.322 129.006L488.282 119.584L489.046 128.873C490.349 128.692 491.852 128.609 493.591 128.609C512.117 128.609 521.416 134.807 521.469 147.187C521.484 150.857 520.393 153.898 518.212 156.344L518.212 156.328Z" fill="white"/>
<path d="M429.286 6.1964C419.542 5.8493 412.658 5.50219 408.637 5.15509C408.437 5.15509 408.111 5.1055 407.64 5.02286C407.169 4.94021 406.824 4.89062 406.643 4.89062C402.623 4.89062 399.479 6.64268 397.212 10.1303C395.126 13.6178 392.031 18.1963 387.962 23.8657C383.875 29.5351 380.6 34.4607 378.137 38.6425C375.675 43.0061 371.873 47.7168 366.734 52.7747C365.021 54.692 363.595 55.6507 362.454 55.6507C361.114 55.6507 359.825 54.9069 358.569 53.4193C357.313 51.9317 356.019 49.9813 354.668 47.535C353.318 45.0887 352.551 43.7003 352.35 43.3532C347.721 36.4442 344.222 31.3202 341.853 27.9483L340.911 27.8326L340.432 25.9649C339.704 24.9566 339.157 24.2128 338.775 23.7335C334.932 18.6757 331.943 14.2294 329.826 10.3947C327.909 6.72533 323.681 4.90716 317.198 4.90716C315.441 4.90716 312.761 4.95674 309.158 5.05592L308.623 11.3203L308.596 5.07244C307.655 5.1055 306.659 5.12203 305.609 5.17162C300.158 5.35344 296.102 5.43608 293.422 5.43608H291.991C288.55 5.43608 286.542 6.04765 285.986 7.27078C285.232 8.84102 284.861 10.9402 284.872 13.5517C284.903 20.874 285.006 32.2128 285.162 47.5515C285.318 62.8903 285.42 74.0638 285.449 81.0389C285.484 89.2372 285.221 104.014 284.642 125.386C284.063 146.741 283.806 162.923 283.853 173.914L283.89 182.542C283.92 189.699 285.566 193.27 288.807 193.27C289.568 193.27 290.6 193.27 291.831 193.22L292.266 184.609L292.103 193.22C292.972 193.204 293.896 193.171 294.982 193.137C297.753 193.055 299.708 193.005 300.849 193.005C301.61 193.005 302.95 193.055 304.852 193.137C306.754 193.22 308.094 193.27 308.873 193.27C309.652 193.27 310.974 193.319 312.894 193.402C314.796 193.485 316.245 193.534 317.187 193.534C317.404 193.534 317.585 193.534 317.784 193.534L318.204 177.237L318.545 193.518C322.058 193.369 323.92 192.592 324.077 191.204C324.248 188.939 324.381 186.146 324.476 182.84C324.552 179.518 324.597 177.352 324.593 176.295C324.77 171.237 324.858 161.997 324.909 148.559C324.943 135.138 325.14 126.146 325.519 121.617C325.516 120.923 325.744 119.27 326.222 116.642C326.682 114.03 327.02 112.725 327.201 112.725C327.781 112.725 329.366 114.94 331.956 119.386C334.547 123.832 335.952 126.411 336.137 127.105C336.908 129.551 338.206 132.559 340.051 136.13C341.877 139.7 343.812 143.32 345.82 146.989C347.845 150.658 349.05 152.923 349.434 153.782C350.204 155.881 351.349 156.923 352.889 156.923C354.03 156.923 355.366 156.146 356.899 154.576C357.475 153.7 361.452 147.683 368.865 136.526C372.484 131.468 376.456 124.311 380.817 115.072C384.609 108.097 386.984 104.609 387.944 104.609C388.524 104.609 388.8 105.832 388.811 108.278C388.825 111.584 388.466 116.609 387.734 123.32C387.002 130.03 386.536 135.485 386.373 139.667C385.664 151.7 385.333 171.427 385.381 182.765C385.399 186.947 385.991 189.873 387.139 191.526C388.287 193.179 390.79 194.005 394.593 194.005C397.454 194.005 401.946 194.17 408.069 194.534C414.192 194.881 418.865 195.063 422.125 195.063C428.807 195.063 432.151 193.493 432.138 190.352C432.074 175.36 432.154 152.179 432.379 136.923C432.604 121.667 432.876 109.072 433.214 99.1215C433.552 89.1876 434.072 75.2373 434.756 57.2705C435.44 39.3036 435.959 25.0889 436.295 14.6261C436.293 14.279 436.346 13.9319 436.435 13.5848C436.524 13.2377 436.577 12.9732 436.577 12.8079C436.558 8.44432 434.158 6.26252 429.377 6.26252L429.286 6.1964Z" fill="white"/>
<path d="M282.144 191.355C282.141 190.661 281.549 187.686 280.385 182.463C271.564 131.025 260.351 75.2072 246.712 15.0422C245.734 10.8604 244.147 8.24887 241.951 7.19103C239.901 6.21582 236.24 5.55467 230.986 5.19104L230.514 13.3893L230.479 5.15798C230.244 5.15798 230.008 5.12492 229.755 5.1084C229.573 5.1084 229.392 5.1084 229.211 5.09187L228.892 19.4885L228.414 5.05881C205.392 4.05055 187.95 3.55469 176.142 3.55469C175.925 3.55469 175.744 3.55469 175.526 3.55469L174.148 7.38938L174.44 3.57121C173.897 3.58774 173.408 3.63733 172.974 3.68691L171.786 18.1827L172.141 3.81915C171.562 3.91832 171.055 4.03402 170.712 4.19931C169.754 4.62906 168.998 5.81914 168.427 7.73648C167.108 12.6125 166.165 16.7116 165.618 20.0339C161.548 50.8933 152.209 103.124 137.618 176.727L134.532 192.165C134.541 194.264 136.737 195.306 141.138 195.306C143.239 195.306 146.154 195.256 149.884 195.173C153.615 195.091 156.711 195.041 159.192 195.041C162.054 195.041 165.694 195.091 170.077 195.173C171.417 195.206 172.631 195.223 173.754 195.24L173.989 186.727L174.17 195.256C174.424 195.256 174.659 195.256 174.913 195.256L175.051 193.587L175.293 195.256C177.159 195.289 178.68 195.289 179.839 195.289C181.36 195.289 182.608 194.892 183.565 194.116C184.521 193.339 185.133 192.496 185.419 191.636C185.705 190.76 185.935 189.454 186.127 187.719C188.144 168.017 190.468 152.496 193.1 141.157C193.848 138.199 195.942 136.628 199.382 136.446C202.405 136.149 205.121 135.934 207.547 135.752L207.821 132.033L208.289 135.703C211.349 135.504 213.938 135.389 216.003 135.389C220.023 135.389 222.602 137.042 223.757 140.364C225.683 146.116 228.321 157.372 231.634 174.116C232.022 175.851 232.649 178.512 233.533 182.099C234.4 185.669 235.045 188.33 235.433 190.083C236.26 193.058 238.35 194.744 241.666 195.19L241.606 181.107L242.916 195.289C243.115 195.289 243.297 195.322 243.496 195.322C244.908 195.322 246.882 195.24 249.362 195.091L249.767 175.388L249.851 195.058C249.851 195.058 249.924 195.058 249.96 195.058C252.73 194.876 254.776 194.793 256.116 194.793C258.217 194.793 261.459 194.876 265.861 195.058C270.262 195.24 273.703 195.322 276.184 195.322C280.205 195.322 282.191 194.016 282.18 191.405L282.144 191.355ZM222.674 90.1162C222.683 92.3806 221.167 93.6038 218.107 93.7856C215.808 93.9674 212.567 94.05 208.365 94.05C205.16 94.05 202.679 93.9839 200.813 93.8352L197.339 94.7938L197.149 92.6947C196.404 92.0005 196.019 90.9591 196.013 89.5872C196.008 88.3641 196.289 86.1823 196.837 83.0418C199.816 64.0337 201.955 51.7362 203.272 46.166C203.469 45.6371 203.882 44.9925 204.549 44.1991C205.216 43.4222 205.83 43.0255 206.409 43.0255C207.55 43.0255 208.511 43.1578 209.272 43.4222C210.034 43.6867 210.67 44.166 211.144 44.8602C211.618 45.5544 211.964 46.1164 212.147 46.5627C212.33 46.9925 212.623 47.8189 213.009 49.042C217.855 64.2155 221.062 77.389 222.631 88.5459L222.637 90.1162H222.674Z" fill="white"/>
<path d="M109.14 102.958C107.58 102.066 106.775 101.089 106.761 100.028C106.757 99.6744 106.955 99.3208 107.338 98.9671C109.258 96.3064 110.871 94.1678 112.215 92.568C121.999 82.0768 126.793 69.2111 126.597 53.9205C126.494 45.9216 125.039 38.8657 122.231 32.736C119.424 26.6063 115.175 21.6722 109.486 17.9506C103.796 14.2122 97.8195 11.1473 91.5754 8.75605C91.0936 8.57081 90.5752 8.40241 90.075 8.21718L89.3319 26.421L89.0933 7.86353C83.2422 5.92695 76.0884 4.47873 67.5953 3.55254C57.8468 2.49163 49.0429 1.76751 41.1656 1.41387C33.4727 1.06024 24.0676 0.89184 12.9681 0.875L11.5787 6.09535L11.512 0.90868C10.9405 0.90868 10.4062 0.942362 9.87196 0.976041L8.47262 59.9155L7.71805 1.22864C2.91588 2.00327 0.491873 4.19245 0.538425 7.81302C0.627414 14.7342 0.86705 26.2021 1.27555 42.2C1.68406 58.1978 1.92239 69.5647 2.00922 76.3175C2.1623 88.2233 2.62759 105.77 3.42355 128.959C4.20106 152.147 4.68588 169.779 4.84112 181.853C4.87317 184.345 4.98463 185.844 5.19436 186.383C5.40627 187.09 5.65396 187.713 5.95589 188.252C6.25781 188.791 6.65063 189.229 7.13454 189.582C7.61846 189.936 8.11973 190.205 8.60148 190.391C9.08301 190.559 9.76757 190.744 10.6549 190.93C11.5239 191.115 12.2076 191.233 12.7067 191.334C13.1871 191.418 14.0181 191.519 15.1992 191.603C16.3618 191.687 17.1368 191.738 17.5424 191.738C23.6697 192.209 30.1277 192.597 36.8799 192.917L36.5869 190.205L37.9499 192.967C38.3002 192.967 38.614 193.001 38.9646 193.018L38.775 192.614L43.7791 193.203C55.308 193.641 67.6453 193.86 80.9017 193.86H81.0861L81.4597 192.799L81.547 193.86H81.9711L81.8979 188.168L82.432 193.86H88.4795C103.061 193.674 114.732 189.414 123.475 181.061C132.217 172.709 136.602 162.403 136.647 150.143L136.568 144.014C136.454 135.139 133.771 127.174 128.536 120.168C123.284 113.146 116.849 107.421 109.196 102.975L109.14 102.958ZM45.4365 49.66C45.4069 47.353 45.9232 45.9216 46.9858 45.3996C48.0482 44.8607 50.239 44.6081 53.5393 44.6081C54.4243 44.6081 55.254 44.6081 56.1025 44.6418L55.9817 35.2451L57.0799 44.6586C63.978 44.8607 69.0036 45.6858 72.1012 47.1341C75.7182 48.818 77.5759 52.7754 77.6558 58.9893C77.7129 63.435 76.3999 67.4261 73.7169 70.9793C70.0933 75.9471 62.8242 78.4393 51.9277 78.4393C48.2403 78.4393 46.3656 77.4626 46.3405 75.5092C45.8528 67.6955 45.5552 60.3197 45.466 53.3816L45.4179 49.6432L45.4365 49.66ZM82.2483 155.195C80.0495 157.688 77.1003 159.186 73.4014 159.725C71.2672 160.079 68.1537 160.264 64.0791 160.264H61.7375C56.4829 160.264 52.5881 159.911 50.0531 159.203C48.1102 158.664 47.1194 157.603 47.0989 156.004L47.0954 155.734C47.0634 153.242 46.9556 149.167 46.7903 143.475C46.6249 137.783 46.5172 133.708 46.4851 131.215C46.4486 128.369 49.9334 126.955 56.9396 126.955C75.8009 126.955 85.322 133.27 85.4842 145.883C85.5323 149.621 84.4474 152.72 82.2486 155.212L82.2483 155.195Z" fill="white"/>
<path fill-rule="evenodd" clip-rule="evenodd" d="M430.63 5.96905C430.392 6.24346 430.488 6.84842 430.763 7.08628C431.037 7.32414 431.386 7.10482 431.624 6.83041C431.862 6.556 431.832 6.14073 431.558 5.90288C431.283 5.66502 430.868 5.69465 430.63 5.96905ZM16.617 16.0765C16.617 16.4704 16.1893 16.9789 15.7953 16.9789C15.4014 16.9789 15.082 16.6596 15.082 16.2656C15.082 15.8717 15.4014 15.5523 15.7953 15.5523C16.1893 15.5523 16.617 15.6825 16.617 16.0765ZM39.3436 140.842C39.3436 141.236 38.9159 141.745 38.5219 141.745C38.128 141.745 37.8086 141.425 37.8086 141.031C37.8086 140.637 38.128 140.318 38.5219 140.318C38.9159 140.318 39.3436 140.448 39.3436 140.842ZM89.335 73.7261C89.7864 73.7261 90.2765 73.1434 90.2765 72.692C90.2765 72.2406 89.7864 72.0914 89.335 72.0914C88.8835 72.0914 88.5176 72.4573 88.5176 72.9087C88.5176 73.3602 88.8835 73.7261 89.335 73.7261ZM34.105 70.7458C33.7639 70.4501 33.6446 69.6981 33.9403 69.357C34.236 69.0159 34.7522 68.9791 35.0933 69.2747C35.4344 69.5704 35.4712 70.0866 35.1756 70.4278C34.8799 70.7689 34.4461 71.0415 34.105 70.7458ZM111.548 74.5308C111.999 74.5308 112.489 73.9481 112.489 73.4967C112.489 73.0453 111.999 72.8961 111.548 72.8961C111.096 72.8961 110.73 73.262 110.73 73.7134C110.73 74.1649 111.096 74.5308 111.548 74.5308ZM18.9409 87.0193C18.5998 86.7236 18.4805 85.9716 18.7762 85.6304C19.0719 85.2893 19.5881 85.2525 19.9292 85.5482C20.2703 85.8439 20.3072 86.3601 20.0115 86.7012C19.7158 87.0423 19.282 87.3149 18.9409 87.0193ZM85.7528 114.826C85.4571 115.167 85.5764 115.919 85.9175 116.215C86.2586 116.51 86.6924 116.238 86.9881 115.897C87.2837 115.555 87.2469 115.039 86.9058 114.743C86.5647 114.448 86.0485 114.485 85.7528 114.826ZM212.431 122.988C212.09 122.692 211.971 121.94 212.266 121.599C212.562 121.258 213.078 121.221 213.419 121.517C213.761 121.813 213.797 122.329 213.502 122.67C213.206 123.011 212.772 123.284 212.431 122.988ZM192.212 57.6148C191.916 57.9559 192.035 58.708 192.376 59.0036C192.718 59.2993 193.151 59.0267 193.447 58.6856C193.743 58.3445 193.706 57.8282 193.365 57.5326C193.024 57.2369 192.507 57.2737 192.212 57.6148ZM271.869 150.238C271.528 149.942 271.408 149.19 271.704 148.849C272 148.508 272.516 148.471 272.857 148.767C273.198 149.063 273.235 149.579 272.939 149.92C272.644 150.261 272.21 150.534 271.869 150.238ZM307.464 36.0523C307.168 36.3934 307.287 37.1455 307.628 37.4411C307.97 37.7368 308.403 37.4642 308.699 37.1231C308.995 36.782 308.958 36.2657 308.617 35.9701C308.276 35.6744 307.759 35.7112 307.464 36.0523ZM341.626 47.4646C341.285 47.1689 341.166 46.4169 341.462 46.0758C341.757 45.7346 342.274 45.6978 342.615 45.9935C342.956 46.2892 342.993 46.8054 342.697 47.1465C342.401 47.4876 341.968 47.7603 341.626 47.4646ZM295.725 88.8883C295.43 89.2294 295.549 89.9814 295.89 90.2771C296.231 90.5728 296.665 90.3001 296.961 89.959C297.256 89.6179 297.22 89.1017 296.878 88.806C296.537 88.5103 296.021 88.5471 295.725 88.8883ZM462.255 178.73C461.914 178.435 461.795 177.682 462.091 177.341C462.386 177 462.903 176.963 463.244 177.259C463.585 177.555 463.622 178.071 463.326 178.412C463.03 178.753 462.596 179.026 462.255 178.73ZM259.309 189.673C259.145 189.531 259.088 189.17 259.23 189.007C259.372 188.843 259.62 188.825 259.784 188.967C259.947 189.109 259.965 189.357 259.823 189.521C259.681 189.684 259.473 189.815 259.309 189.673ZM272.38 179.429C272.238 179.592 272.296 179.953 272.46 180.095C272.623 180.237 272.832 180.106 272.973 179.943C273.115 179.779 273.098 179.531 272.934 179.389C272.77 179.247 272.522 179.265 272.38 179.429ZM144.781 196.519C144.44 196.224 144.32 195.472 144.616 195.13C144.912 194.789 145.428 194.753 145.769 195.048C146.11 195.344 146.147 195.86 145.851 196.201C145.556 196.542 145.122 196.815 144.781 196.519ZM148.854 193.184C148.787 193.261 148.814 193.432 148.891 193.499C148.969 193.566 149.067 193.504 149.134 193.427C149.201 193.349 149.193 193.232 149.116 193.165C149.038 193.098 148.921 193.106 148.854 193.184ZM145.087 192.546C145.009 192.479 144.982 192.308 145.049 192.231C145.116 192.153 145.233 192.145 145.311 192.212C145.388 192.279 145.397 192.396 145.33 192.474C145.262 192.551 145.164 192.613 145.087 192.546ZM170.348 159.66C170.281 159.738 170.308 159.909 170.385 159.976C170.463 160.043 170.561 159.981 170.628 159.903C170.696 159.826 170.687 159.709 170.61 159.642C170.532 159.575 170.415 159.583 170.348 159.66ZM100.15 83.2107C100.15 83.4707 99.8674 83.8063 99.6074 83.8063C99.3475 83.8063 99.1367 83.5955 99.1367 83.3355C99.1367 83.0756 99.3475 82.8648 99.6074 82.8648C99.8674 82.8648 100.15 82.9507 100.15 83.2107ZM19.6151 70.557C19.4448 70.7534 19.5135 71.1865 19.7099 71.3568C19.9063 71.5271 20.1562 71.3701 20.3264 71.1736C20.4967 70.9772 20.4755 70.6799 20.2791 70.5096C20.0826 70.3393 19.7853 70.3605 19.6151 70.557Z" fill="white"/>
</svg>
