<svg width="1326" height="1326" viewBox="0 0 1326 1326" fill="none" xmlns="http://www.w3.org/2000/svg">
<g style="mix-blend-mode:hard-light" opacity="0.2">
<path d="M1320.56 741.568L1326 707.239L664.408 662.062C664.252 661.991 664.081 661.948 663.9 661.929L1311.03 517.056L1300.29 483.99L1302.47 483.377L1290.01 450.915L1292.16 450.193L1281.6 426.488L1273.58 401.81L1271.5 402.698L1259.04 370.25L1257 371.247L1242.87 339.492L663.392 661.934C663.221 661.962 663.059 662.015 662.907 662.086L1126.73 188.141L1099.71 166.26L1101.21 164.56L1073.08 144.123L1074.49 142.346L1052.72 128.212L1032.56 111.883L1031.3 113.764L1003.17 93.3319L1002.01 95.2744L972.858 76.343L662.485 662.371C662.361 662.485 662.252 662.618 662.162 662.765L793.033 12.6621L758.453 9.02874L758.785 6.78699L724.062 4.96795L724.275 2.71195H698.324L672.516 0L672.478 2.2655L637.768 0.44645L637.849 2.71195H603.093L661.967 663.235C661.929 663.378 661.905 663.525 661.905 663.682C661.905 663.701 661.91 663.715 661.91 663.734L417.592 47.243L386.612 63.0302L385.667 60.969L348.184 82.6076L309.618 102.256L310.824 104.175L280.722 121.553L661.972 664.152C662.024 664.342 662.1 664.522 662.209 664.684L121.563 280.722L104.18 310.834L102.266 309.618L82.617 348.184L60.9785 385.667L63.035 386.621L47.2572 417.592L662.518 665.007C662.641 665.116 662.784 665.211 662.936 665.287L2.71195 603.093V637.863L0.44645 637.768L2.2655 672.492L0 672.516L2.71195 698.324V724.275L4.96795 724.076L6.78699 758.785L9.02874 758.467L12.6621 793.033L663.416 665.439C663.501 665.453 663.587 665.467 663.677 665.467C663.762 665.467 663.843 665.453 663.924 665.444L76.3477 972.858L95.2839 1002.02L93.3319 1003.17L113.769 1031.3L111.879 1032.56L128.207 1052.72L142.342 1074.49L144.127 1073.09L164.56 1101.21L166.269 1099.72L188.146 1126.73L664.413 665.301C664.574 665.23 664.717 665.13 664.85 665.016L339.497 1242.87L371.261 1257.01L370.255 1259.04L402.717 1271.5L401.82 1273.58L426.498 1281.6L450.202 1292.16L450.939 1290.01L483.387 1302.47L484.009 1300.29L517.065 1311.03L665.182 664.65C665.277 664.503 665.344 664.342 665.396 664.176L707.248 1326L741.592 1320.56L741.853 1322.81L775.864 1315.58L776.244 1317.82L801.307 1311.11L826.935 1307.04L826.384 1304.85L860.381 1297.62L859.716 1295.45L893.29 1286.46L665.472 663.691C665.472 663.511 665.439 663.34 665.387 663.173L1060.94 1195.43L1086.78 1172.16L1088.22 1173.91L1112.81 1149.32L1114.34 1150.99L1131.71 1131.71L1150.99 1114.34L1149.33 1112.8L1173.91 1088.22L1172.17 1086.77L1195.43 1060.94L665.178 662.717C665.083 662.57 664.959 662.442 664.826 662.328L1286.46 893.281L1295.46 859.697L1297.62 860.376L1304.85 826.365L1307.04 826.93L1311.11 801.302L1317.82 776.239L1315.59 775.85L1322.82 741.853L1320.57 741.582L1320.56 741.568Z" fill="url(#paint0_radial_2001_2)"/>
</g>
<defs>
<radialGradient id="paint0_radial_2001_2" cx="0" cy="0" r="1" gradientUnits="userSpaceOnUse" gradientTransform="translate(663 663) rotate(90) scale(345.889 623.66)">
<stop offset="0.018702" stop-color="white" stop-opacity="0"/>
<stop offset="0.262169" stop-color="white"/>
<stop offset="1" stop-color="white" stop-opacity="0"/>
</radialGradient>
</defs>
</svg>
