<svg width="241" height="57" viewBox="0 0 241 57" fill="none" xmlns="http://www.w3.org/2000/svg">
<g clip-path="url(#clip0_2011_22)">
<path d="M22.1567 13.0406C21.5505 12.954 21.5216 12.9251 21.8103 12.8963C22.3587 12.8097 23.6289 12.9251 24.5238 13.1272C26.6023 13.618 28.4787 14.8881 30.4705 17.1109L30.9901 17.7172L31.7407 17.6017C34.945 17.0821 38.2359 17.4862 40.9783 18.7564C41.7288 19.1028 42.9124 19.7956 43.0567 19.9688C43.1145 20.0266 43.2011 20.4018 43.2588 20.7771C43.4609 22.1339 43.3743 23.1442 42.9413 23.9237C42.7103 24.3567 42.7103 24.4721 42.8547 24.8474C42.9701 25.1361 43.3165 25.3382 43.6341 25.3382C44.3269 25.3382 45.0486 24.2412 45.395 22.7112L45.5393 22.105L45.7991 22.3937C47.2714 24.0391 48.4261 26.3197 48.5993 27.9362L48.657 28.3693L48.3972 27.994C47.9642 27.33 47.5601 26.897 47.0116 26.5217C46.0301 25.8578 44.9909 25.6557 42.2484 25.5114C39.7658 25.367 38.3513 25.165 36.9657 24.7031C34.5986 23.9237 33.3861 22.9133 30.586 19.1894C29.3447 17.5439 28.5653 16.6491 27.7858 15.8985C26.0826 14.2531 24.3795 13.387 22.1567 13.0406Z" fill="#FF007A"/>
<path d="M43.6605 16.7155C43.7182 15.6186 43.8626 14.8969 44.1801 14.2329C44.2956 13.9731 44.4111 13.7422 44.4399 13.7422C44.4688 13.7422 44.4111 13.9443 44.3245 14.1752C44.0935 14.8103 44.0647 15.7052 44.209 16.7155C44.4111 18.0146 44.4977 18.1878 45.8833 19.6023C46.5184 20.2662 47.2689 21.1034 47.5576 21.4498L48.0484 22.0849L47.5576 21.623C46.9514 21.0457 45.5658 19.9487 45.2482 19.8044C45.0462 19.6889 45.0173 19.6889 44.8729 19.8332C44.7575 19.9487 44.7286 20.1219 44.7286 20.9591C44.6997 22.2581 44.5265 23.0664 44.0935 23.9035C43.8626 24.3366 43.8337 24.25 44.0358 23.7592C44.1801 23.3839 44.209 23.2107 44.209 21.9694C44.209 19.458 43.9203 18.8517 42.1594 17.8414C41.7264 17.5816 40.9758 17.2063 40.5428 17.0042C40.0809 16.8021 39.7345 16.6289 39.7634 16.6289C39.8211 16.5712 41.5243 17.0619 42.1883 17.3506C43.1986 17.7548 43.3718 17.7836 43.4873 17.7548C43.5739 17.6682 43.6316 17.4372 43.6605 16.7155Z" fill="#FF007A"/>
<path d="M23.3349 21.008C22.1224 19.3337 21.343 16.7357 21.5162 14.8015L21.5739 14.1953L21.8626 14.253C22.3822 14.3397 23.2771 14.6861 23.7101 14.9459C24.8648 15.6387 25.3845 16.5913 25.8752 18.9584C26.0195 19.6513 26.2216 20.4596 26.3082 20.7194C26.4526 21.1524 27.001 22.1627 27.4629 22.7978C27.7805 23.2597 27.5784 23.4906 26.8567 23.4329C25.7597 23.3174 24.2875 22.3071 23.3349 21.008Z" fill="#FF007A"/>
<path d="M42.1896 33.5736C36.4738 31.2642 34.4531 29.2724 34.4531 25.8949C34.4531 25.4041 34.482 25 34.482 25C34.5109 25 34.7129 25.1732 34.9727 25.3753C36.1274 26.299 37.4265 26.7032 41.0349 27.2228C43.1422 27.5403 44.3547 27.7713 45.4516 28.1466C48.9446 29.3013 51.1097 31.6684 51.6293 34.8727C51.7736 35.7964 51.687 37.5574 51.4561 38.4811C51.254 39.2028 50.6767 40.5307 50.5323 40.5596C50.5035 40.5596 50.4457 40.4152 50.4457 40.1843C50.388 38.9719 49.7818 37.8172 48.7714 36.9223C47.559 35.883 46.0001 35.1036 42.1896 33.5736Z" fill="#FF007A"/>
<path d="M38.1463 34.5204C38.0886 34.0874 37.9443 33.539 37.8577 33.308L37.7133 32.875L37.9731 33.1925C38.3484 33.6256 38.6371 34.1452 38.8969 34.8669C39.099 35.4153 39.099 35.5885 39.099 36.4834C39.099 37.3495 39.0701 37.5515 38.8969 38.0423C38.6082 38.8217 38.2618 39.3702 37.6845 39.9764C36.6452 41.0445 35.2885 41.6219 33.3543 41.8817C33.0079 41.9105 32.0264 41.9971 31.1604 42.0549C28.9953 42.1703 27.552 42.4013 26.2529 42.8632C26.0797 42.9209 25.9065 42.9786 25.8777 42.9498C25.8199 42.892 26.7148 42.3724 27.4365 42.026C28.4469 41.5352 29.4861 41.2754 31.7666 40.8713C32.8925 40.6981 34.0472 40.4672 34.3358 40.3517C37.1937 39.4568 38.6082 37.234 38.1463 34.5204Z" fill="#FF007A"/>
<path d="M40.7748 39.1605C40.0242 37.5151 39.851 35.9562 40.2551 34.484C40.3129 34.3396 40.3706 34.1953 40.4284 34.1953C40.4861 34.1953 40.6593 34.2819 40.8325 34.3974C41.1789 34.6283 41.9006 35.0325 43.7481 36.0428C46.0864 37.313 47.4143 38.2945 48.338 39.4203C49.1463 40.4018 49.6371 41.5277 49.868 42.9133C50.0124 43.6927 49.9258 45.5691 49.7237 46.3485C49.0886 48.8023 47.6452 50.7653 45.5379 51.8911C45.2204 52.0643 44.9605 52.1798 44.9317 52.1798C44.9028 52.1798 45.0183 51.8911 45.1915 51.5447C45.8843 50.0724 45.9709 48.6579 45.4513 47.0702C45.1338 46.0887 44.4698 44.9052 43.1419 42.9133C41.5542 40.6039 41.1789 39.9977 40.7748 39.1605Z" fill="#FF007A"/>
<path d="M19.2703 47.9928C21.4065 46.203 24.0334 44.9328 26.4583 44.5287C27.4975 44.3555 29.2296 44.4132 30.1822 44.673C31.7122 45.0772 33.0978 45.9432 33.8195 47.0113C34.5123 48.0505 34.8299 48.9454 35.1474 50.9373C35.2629 51.7167 35.4072 52.525 35.4361 52.6982C35.667 53.7374 36.1289 54.5457 36.7062 54.9787C37.6011 55.6427 39.16 55.6715 40.69 55.0942C40.9498 55.0076 41.1807 54.921 41.1807 54.9499C41.2384 55.0076 40.459 55.5272 39.9394 55.787C39.2177 56.1623 38.6404 56.2778 37.8609 56.2778C36.4753 56.2778 35.2917 55.5561 34.3391 54.1127C34.137 53.824 33.7329 52.9869 33.3865 52.2074C32.3761 49.8692 31.8565 49.1764 30.6729 48.3969C29.6337 47.733 28.3058 47.5886 27.2954 48.0794C25.9675 48.7145 25.6211 50.4177 26.5449 51.4569C26.9202 51.8899 27.613 52.2363 28.1903 52.3229C29.2584 52.4673 30.1822 51.6301 30.1822 50.562C30.1822 49.8692 29.9224 49.465 29.2296 49.1475C28.3058 48.7433 27.2954 49.2052 27.3243 50.1001C27.3243 50.4754 27.4975 50.7063 27.8728 50.8795C28.1037 50.995 28.1037 50.995 27.9305 50.9661C27.0934 50.7929 26.8913 49.7537 27.5552 49.0898C28.3635 48.2815 30.0667 48.6279 30.6441 49.7537C30.875 50.2156 30.9039 51.1394 30.7018 51.7167C30.2111 52.9869 28.8254 53.6508 27.4109 53.2755C26.4583 53.0157 26.0541 52.7559 24.8994 51.5724C22.8787 49.4939 22.0993 49.0898 19.2125 48.6567L18.6641 48.5701L19.2703 47.9928Z" fill="#FF007A"/>
<path fill-rule="evenodd" clip-rule="evenodd" d="M4.08434 1.5538C10.8105 9.7233 21.1739 22.425 21.6935 23.1178C22.1265 23.6952 21.9533 24.2437 21.2316 24.6478C20.8275 24.8787 19.9903 25.1097 19.5862 25.1097C19.1243 25.1097 18.5758 24.8787 18.2005 24.5035C17.9407 24.2437 16.8149 22.5982 14.2746 18.6434C12.3404 15.6123 10.695 13.1008 10.6661 13.0719C10.5507 13.0142 10.5507 13.0142 14.0725 19.3073C16.2953 23.2622 17.017 24.6767 17.017 24.8499C17.017 25.2252 16.9015 25.4272 16.4396 25.9468C15.6602 26.8129 15.3138 27.7944 15.054 29.844C14.7653 32.1245 13.9859 33.7411 11.7631 36.4835C10.4641 38.1001 10.262 38.3887 9.94444 39.0527C9.5403 39.861 9.42483 40.3229 9.36709 41.3621C9.30936 42.459 9.42483 43.1519 9.74237 44.1911C10.031 45.1149 10.3486 45.7211 11.128 46.9046C11.792 47.9439 12.1961 48.7233 12.1961 49.012C12.1961 49.2429 12.2538 49.2429 13.2931 49.012C15.7757 48.4346 17.8253 47.4531 18.9511 46.2407C19.6439 45.4901 19.8171 45.086 19.8171 44.0468C19.8171 43.3828 19.7883 43.2385 19.6151 42.8343C19.3264 42.1992 18.7779 41.6796 17.5943 40.8713C16.0355 39.8032 15.3715 38.9372 15.1983 37.7825C15.054 36.801 15.2272 36.1371 16.0932 34.3184C16.9881 32.442 17.2191 31.6626 17.3634 29.7573C17.45 28.5449 17.5943 28.0542 17.9407 27.6789C18.316 27.2747 18.6336 27.1304 19.5285 27.0149C21.0007 26.8129 21.9533 26.4376 22.7039 25.7159C23.3678 25.1097 23.6565 24.5035 23.6854 23.6086L23.7142 22.9446L23.339 22.5405C21.9822 20.9816 3.18945 0.3125 3.10285 0.3125C3.07398 0.3125 3.53586 0.860982 4.08434 1.5538ZM12.9467 42.6034C13.2642 42.0549 13.091 41.3621 12.5714 41.0157C12.0806 40.6981 11.3301 40.8425 11.3301 41.2755C11.3301 41.3909 11.3878 41.5064 11.561 41.5642C11.8208 41.7085 11.8497 41.8528 11.6476 42.1704C11.4456 42.4879 11.4456 42.7766 11.7054 42.9787C12.1095 43.2962 12.658 43.123 12.9467 42.6034Z" fill="#FF007A"/>
<path fill-rule="evenodd" clip-rule="evenodd" d="M24.6333 27.4143C23.9405 27.6164 23.2765 28.3669 23.0745 29.1175C22.959 29.5794 23.0167 30.4165 23.2188 30.6763C23.5364 31.0805 23.825 31.196 24.6333 31.196C26.221 31.196 27.5778 30.5031 27.7221 29.666C27.8665 28.9732 27.2603 28.0205 26.4231 27.5875C25.9901 27.3566 25.0952 27.27 24.6333 27.4143ZM26.4808 28.8577C26.7118 28.5113 26.6252 28.136 26.1922 27.8762C25.4127 27.3854 24.2292 27.7896 24.2292 28.5401C24.2292 28.9154 24.8354 29.3196 25.4127 29.3196C25.788 29.3196 26.3076 29.0886 26.4808 28.8577Z" fill="#FF007A"/>
</g>
<path fill-rule="evenodd" clip-rule="evenodd" d="M142.475 29.8268C141.316 26.2832 143.227 23.3439 147.303 22.3994C148.473 22.1283 153.766 22.2506 154.673 22.5697C155.007 22.6866 155.152 23.1354 155.155 24.0578C155.157 24.7841 155.243 25.6663 155.346 26.0181C155.502 26.5514 155.411 26.6563 154.799 26.6478C154.245 26.6398 153.91 26.3415 153.443 25.4391C152.697 23.9978 151.793 23.5393 149.687 23.5339C146.998 23.5268 145.031 25.1914 145.351 27.2027C145.56 28.5116 146.982 29.7994 150.173 31.5698C153.21 33.2539 154.982 34.6389 155.688 35.8797C157.576 39.1972 155.964 42.7473 151.757 44.536C149.597 45.4541 145.978 45.549 143.434 44.7543L141.804 44.2453V41.851C141.804 39.6826 141.86 39.4563 142.398 39.4563C142.847 39.4563 143.042 39.7296 143.199 40.5857C143.592 42.7144 145.351 44.0066 147.857 44.0066C150.311 44.0066 152.027 42.7735 152.684 40.5376C152.964 39.585 152.915 39.2338 152.36 38.183C151.695 36.9232 150.549 36.0872 146.658 34.0228C144.498 32.8771 142.971 31.3453 142.475 29.8268ZM66.1913 23.814C65.6603 23.814 65.4531 23.6545 65.4531 23.2452C65.4531 22.7034 65.6603 22.6764 69.8211 22.6764C73.6831 22.6764 74.1773 22.7299 74.0887 23.1374C74.0333 23.3911 73.4997 23.7429 72.9022 23.9195L71.8157 24.2406L71.723 31.493C71.6609 36.3323 71.7482 39.1239 71.9852 39.8828C72.6897 42.14 74.8389 43.438 77.8712 43.438C79.9822 43.438 81.2154 42.9841 82.7647 41.6362C84.4311 40.1872 84.6969 38.8104 84.6916 31.6546C84.6865 24.5962 84.5528 24.0137 82.9044 23.8672C82.1542 23.8004 81.9029 23.6397 81.9029 23.2273C81.9029 22.7131 82.1504 22.6764 85.6273 22.6764C89.1448 22.6764 89.3517 22.708 89.3517 23.2452C89.3517 23.5956 89.1431 23.8157 88.8085 23.8183C87.371 23.8299 87.3446 23.9557 87.1511 31.6954C86.9505 39.7329 86.763 40.6846 84.9916 42.6534C84.4808 43.2214 83.2625 44.0462 82.2846 44.4863C80.6909 45.2035 80.1839 45.2859 77.4024 45.2812C74.8384 45.2764 74.029 45.1625 72.7469 44.6258C70.8754 43.8424 69.6583 42.8285 68.761 41.3049C68.1347 40.2413 68.0812 39.6658 67.9362 32.4599C67.7701 24.2116 67.6897 23.814 66.1913 23.814ZM95.2342 23.814C94.5246 23.814 94.3176 23.6855 94.3176 23.2452C94.3176 22.712 94.5159 22.6778 97.4988 22.6997L100.68 22.723L102.202 24.335C103.039 25.2215 105.767 27.9948 108.264 30.4974C110.761 33.0003 113.627 35.9117 114.634 36.9676C115.641 38.0237 116.588 38.8875 116.74 38.8875C116.895 38.8875 116.973 35.9047 116.917 32.0367L116.819 25.186L115.948 24.5C115.47 24.1226 114.737 23.814 114.319 23.814C113.764 23.814 113.561 23.6593 113.561 23.2372C113.561 22.6818 113.719 22.6633 117.828 22.7395C121.322 22.8044 122.096 22.894 122.096 23.2335C122.096 23.4756 121.664 23.7296 121.058 23.843C120.488 23.95 119.859 24.1855 119.662 24.3663C119.407 24.5998 119.277 27.6188 119.214 34.7775L119.125 44.8598H118.225C117.451 44.8598 116.529 44.0585 111.601 39.1007C108.452 35.9329 104.776 32.1683 103.433 30.7347C102.09 29.301 100.886 28.1171 100.758 28.1041C100.397 28.067 100.485 40.8762 100.853 42.0921C101.14 43.0395 101.338 43.2027 102.559 43.502C103.542 43.7428 103.939 43.9872 103.939 44.3501C103.939 44.8161 103.564 44.8598 99.594 44.8598C95.5522 44.8598 95.2488 44.8228 95.2488 44.3267C95.2488 43.9636 95.5412 43.74 96.1658 43.6254C98.061 43.2782 98.1868 42.7269 98.2931 34.3009C98.3527 29.5818 98.2653 26.2798 98.062 25.5884C97.7048 24.3726 96.8147 23.814 95.2342 23.814ZM127.778 23.814C127.113 23.814 126.907 23.6789 126.907 23.2452C126.907 22.7017 127.113 22.6764 131.562 22.6764C136.011 22.6764 136.218 22.7017 136.218 23.2452C136.218 23.6624 136.011 23.814 135.442 23.814C135.015 23.814 134.381 24.0751 134.032 24.3942C133.418 24.9576 133.402 25.2378 133.49 33.9451C133.575 42.4451 133.611 42.9369 134.182 43.319C134.513 43.5409 135.107 43.7223 135.501 43.7223C136.011 43.7223 136.218 43.8863 136.218 44.2912C136.218 44.8347 136.011 44.8598 131.562 44.8598C127.219 44.8598 126.907 44.8241 126.907 44.3276C126.907 43.9272 127.211 43.7503 128.136 43.6148C129.973 43.3457 130.067 42.7947 129.952 32.9628C129.861 25.089 129.821 24.5981 129.253 24.2173C128.921 23.9955 128.258 23.814 127.778 23.814ZM160.253 23.814C159.829 23.814 159.506 23.5976 159.405 23.2452C159.249 22.6952 159.396 22.6764 163.87 22.6764C168.289 22.6764 168.496 22.7017 168.496 23.2452C168.496 23.6823 168.289 23.814 167.603 23.814C165.649 23.814 165.693 24.1393 168.65 31.5771C170.155 35.3632 171.617 38.9596 171.898 39.5691L172.408 40.6775L174.779 34.8764C177.569 28.048 177.932 26.7852 177.458 25.5398C177.128 24.6718 175.843 23.814 174.874 23.814C174.6 23.814 174.393 23.5694 174.393 23.2452C174.393 22.7009 174.6 22.6764 179.204 22.6764C183.808 22.6764 184.015 22.7009 184.015 23.2452C184.015 23.6499 183.808 23.814 183.298 23.814C181.993 23.814 181.418 24.4517 181.605 25.6905C181.798 26.9658 187.136 40.672 187.36 40.4669C187.724 40.1334 193.636 25.3785 193.636 24.8035C193.636 24.1144 193.11 23.814 191.904 23.814C191.36 23.814 191.153 23.6573 191.153 23.2452C191.153 22.708 191.36 22.6764 194.878 22.6764C198.037 22.6764 198.602 22.7435 198.602 23.1178C198.602 23.3607 198.215 23.6829 197.742 23.8339C196.678 24.1738 196.411 24.5617 195.076 27.7041C194.49 29.084 192.656 33.4027 191 37.3007C189.344 41.1991 187.918 44.5587 187.831 44.7665C187.744 44.9744 187.231 45.1444 186.69 45.1444H185.708L183.478 39.8117C182.252 36.8791 180.803 33.4045 180.259 32.0906C179.326 29.8391 179.248 29.7414 178.897 30.384C178.692 30.7595 177.219 34.2402 175.623 38.1192L172.722 45.1722L171.639 45.0872L170.556 45.0022L166.426 35.0702C164.119 29.5213 161.997 24.8458 161.618 24.4761C161.244 24.1118 160.63 23.814 160.253 23.814ZM222.312 23.9346C222.261 23.8266 222.261 23.4383 222.261 23.4383C222.261 23.4383 222.249 23.2983 222.313 23.2236C222.377 23.1491 222.399 23.1471 222.627 23.1272L222.63 23.127C223.468 23.0537 225.149 22.9303 226.552 22.8741C226.68 22.8689 226.823 22.8629 226.979 22.8565L226.982 22.8563L226.984 22.8562C228.528 22.7918 231.292 22.7056 233.192 22.7929C236.836 22.9603 239.427 24.5801 240.311 27.2568C241.194 29.9334 240.727 32.446 239.523 34.0453C238.319 35.6446 236.294 37.0217 232.929 36.9321C230.152 36.8581 229.408 36.3797 228.814 35.9976C228.689 35.9168 228.57 35.8402 228.44 35.7729V39.1863C228.469 41.5144 228.49 42.6325 228.687 43.0464C228.951 43.6035 229.548 43.9468 230.711 44.2099C230.711 44.2099 231.237 44.3234 231.373 44.4444C231.509 44.5654 231.509 44.834 231.509 44.834C231.509 44.834 231.536 45.0852 231.427 45.2133C231.318 45.3413 231.108 45.3157 231.108 45.3157L225.956 45.2775L222.85 45.27C222.85 45.27 222.524 45.3274 222.402 45.2069C222.28 45.0861 222.291 44.8347 222.291 44.8347C222.291 44.8347 222.318 44.5638 222.461 44.4426C222.603 44.3212 223.133 44.1857 223.133 44.1857C224.331 43.8764 224.851 43.5492 225.122 42.9329C225.341 42.436 225.342 41.5146 225.34 33.9952C225.338 26.8643 225.327 25.5341 225.149 25.1516C224.886 24.5853 224.227 24.4352 223.289 24.2216C223.103 24.1793 222.905 24.1343 222.698 24.0832C222.698 24.0832 222.365 24.0427 222.312 23.9346ZM237.312 29.7533C237.312 30.9226 237.29 32.7533 235.936 33.9235C234.583 35.0937 231.917 35.414 230.108 35.0881C229.538 34.9855 229.212 34.8272 228.96 34.7051L228.935 34.693L228.472 34.4687L228.445 30.3603C228.428 27.7862 228.458 26.1091 228.524 25.8693C228.584 24.512 230.761 24.3431 231.825 24.3934C236.376 24.3934 237.18 27.9197 237.312 29.7533ZM208.021 22.8357C208.021 22.8357 207.799 22.9141 207.462 23.0316L206.246 23.6088L205.371 25.6178C204.89 26.7227 204.01 28.7511 203.415 30.1252C202.332 32.6281 201.617 34.2725 200.864 35.9888C200.642 36.4936 199.974 38.0309 199.378 39.4051C198.783 40.7791 198.187 42.0868 198.055 42.3111C198.033 42.3484 198.01 42.3885 197.985 42.4309C197.652 43.0066 197.074 44.0066 196.052 44.1579C196.052 44.1579 195.49 44.2086 195.282 44.3976C195.074 44.5868 195.094 44.7413 195.094 44.7413V44.9795C195.094 44.9795 195.113 45.0949 195.231 45.1523C195.349 45.2099 195.508 45.2133 195.508 45.2133L199.246 45.1742H203.109C203.109 45.1742 203.383 45.2035 203.488 45.1232C203.593 45.0428 203.622 44.9236 203.622 44.9236V44.6729C203.622 44.6729 203.569 44.4009 203.416 44.2947C203.263 44.1888 202.689 44.1161 202.689 44.1161C201.143 43.9292 200.877 42.8534 201.067 41.8861C201.161 41.4108 201.783 39.6528 202.483 37.8828L202.725 37.2711L206.773 37.2426C208.999 37.227 210.922 37.2376 211.045 37.2663C211.22 37.3071 211.466 37.7665 212.189 39.4027C213.283 41.8817 213.37 42.1837 213.128 42.6475C213.113 42.6757 213.098 42.7069 213.081 42.7404C212.853 43.189 212.412 44.0605 211.3 44.1492C211.3 44.1492 210.71 44.168 210.563 44.3303C210.416 44.4927 210.448 44.6795 210.448 44.6795V44.9276C210.448 44.9276 210.487 45.0731 210.563 45.1307C210.638 45.1883 210.767 45.1737 210.767 45.1737L214.441 45.1495L219.606 45.1492C219.606 45.1492 219.809 45.1691 219.864 45.0976C219.919 45.0258 219.931 44.9415 219.931 44.9415V44.6119C219.931 44.6119 219.908 44.4367 219.809 44.34C219.71 44.2435 219.04 44.1415 219.04 44.1415C218.184 44.0146 217.758 43.3651 217.441 42.8815C217.36 42.7581 217.286 42.6455 217.214 42.5552C217.067 42.3709 216.541 41.3607 216.13 40.3892C215.719 39.4177 214.791 37.223 214.068 35.5124C213.345 33.8018 212.336 31.4155 211.826 30.2098C211.316 29.0038 210.346 26.7094 209.672 25.1109C209.561 24.8485 209.462 24.6129 209.373 24.4019C208.92 23.3284 208.738 22.8943 208.687 22.8357C208.525 22.6453 208.021 22.8357 208.021 22.8357ZM207.78 29.3678C207.617 29.0034 207.33 28.3495 207.143 27.9149C206.802 27.1248 206.673 26.9428 206.567 27.106C206.536 27.1537 206.322 27.6937 206.09 28.306C204.592 32.2707 203.914 34.0559 203.778 34.3923C203.692 34.6038 203.622 34.8217 203.622 34.8767C203.622 34.9398 204.841 34.9767 206.928 34.9767C208.747 34.9767 210.234 34.9559 210.234 34.9305C210.234 34.9051 210.072 34.5268 209.874 34.0892C209.676 33.6517 209.19 32.5597 208.795 31.6623C208.4 30.765 207.944 29.7325 207.78 29.3678Z" fill="#FF007A"/>
<defs>
<clipPath id="clip0_2011_22">
<rect width="55.9452" height="55.9452" fill="white" transform="translate(0 0.320312)"/>
</clipPath>
</defs>
</svg>
