<svg width="24" height="1490" viewBox="0 0 24 1490" fill="none" xmlns="http://www.w3.org/2000/svg">
<path opacity="0.2" d="M10.9394 1489.06C11.5252 1489.65 12.4749 1489.65 13.0607 1489.06L22.6067 1479.51C23.1925 1478.93 23.1925 1477.98 22.6067 1477.39C22.0209 1476.81 21.0711 1476.81 20.4853 1477.39L12.0001 1485.88L3.51478 1477.39C2.929 1476.81 1.97925 1476.81 1.39346 1477.39C0.807676 1477.98 0.807676 1478.93 1.39346 1479.51L10.9394 1489.06ZM10.5 6.55671e-08L10.5001 1488L13.5001 1488L13.5 -6.55671e-08L10.5 6.55671e-08Z" fill="url(#paint0_linear_781_3989)"/>
<defs>
<linearGradient id="paint0_linear_781_3989" x1="12.5" y1="-2.18557e-08" x2="12.5001" y2="1488" gradientUnits="userSpaceOnUse">
<stop stop-color="white" stop-opacity="0"/>
<stop offset="0.367655" stop-color="#999999"/>
</linearGradient>
</defs>
</svg>
