<svg width="3329" height="3295" viewBox="0 0 3329 3295" fill="none" xmlns="http://www.w3.org/2000/svg">
<g style="mix-blend-mode:hard-light" opacity="0.18">
<path d="M1900.23 3294.49L1669.79 1685.34L1677.54 1739.03C1683.87 1738.13 1693.76 1735.87 1705.01 1730.34L1664.91 1648.83L1664.49 1648.38L1664.59 1648.18L1664.53 1648.16L1664.57 1648.15L1664.56 1648.1L1664.44 1648.1L1664.5 1648.04L1664.4 1647.82L1664.46 1647.49L1664.35 1647.47L1664.46 1647.42L1664.48 1647.31L1664.53 1647.39L1664.81 1647.25L1664.48 1647.29L1664.5 1647.19L1664.83 1647.25L1665.05 1647.14L1665.11 1647.21L1665.2 1647.07L1665.39 1647.17L1665.81 1646.77L1672.14 1643.66L1755.65 1631.48L1756.04 1634.25L1665.39 1647.18L1665.87 1647.43L1667.42 1647.71L1666.58 1647.83L1666.66 1647.87L1667.56 1647.74L1755.42 1662.92C1757.46 1651.13 1756.95 1641.37 1756.12 1635.05L1682.7 1645.53L1756.09 1634.83C1756.07 1634.65 1756.04 1634.5 1756.02 1634.32L1756.09 1634.83L3310.93 1407.93L3311.55 1412.29C3336.3 1585.71 3333.7 1760.75 3303.83 1932.56L1666.74 1647.91L3134.98 2425.81C3053.35 2579.87 2948.58 2719.58 2823.56 2841.09L1665.55 1649.56L2397.35 3141.34C2240.82 3218.14 2073.53 3269.65 1900.16 3294.48L1900.23 3294.49ZM1667.66 1649.82L1729.41 1713.23C1736.03 1706.78 1741.59 1699.36 1745.91 1691.18L1667.66 1649.82ZM1665.82 1647.94L1665.86 1647.99L1666.59 1647.88L1666.42 1647.85L1665.82 1647.94ZM1664.6 1647.53L1664.75 1647.81L1664.93 1647.57L1664.62 1647.51L1664.6 1647.53ZM1665.21 1647.31L1665.25 1647.31L1665.41 1647.18L1665.11 1647.22L1665.21 1647.31ZM1664.87 1647.26L1665.09 1647.3L1665.13 1647.22L1664.87 1647.26ZM1379.99 3287.04C1207.58 3257.17 1041.58 3200.44 886.611 3118.45L1621.58 1729.49C1629.88 1733.73 1638.88 1736.72 1648.36 1738.4L1379.97 3287.05L1379.99 3287.04ZM471.168 2807.22C348.921 2681.58 247.837 2538.24 170.686 2381.19L1581.41 1688.25C1585.68 1696.89 1591.1 1704.68 1597.5 1711.47L471.166 2807.21L471.168 2807.22ZM17.4483 1885.15L17.0537 1882.39C-7.60676 1709.56 -5.10404 1535.1 24.4717 1363.83L1656.92 1645.89L1659.49 1645.52L192.844 870.362C274.3 716.234 378.948 576.4 503.829 454.758L1662.96 1644.99L1663.02 1644.98L929.711 154.068C1086.18 77.1057 1253.43 25.4006 1426.77 0.399862L1651.08 1555.61C1644.77 1556.51 1634.94 1558.76 1623.76 1564.24L1663.35 1644.94L1663.96 1644.85L1664.19 1646.24L1664.16 1646.29L1664.32 1647.16L1664.27 1646.83L1664.42 1647.13L1664.35 1647.14L1664.45 1647.18L1664.5 1647.31L1664.35 1647.33L1664.32 1647.18L1664.29 1647.18L1664.31 1647.34L1572.59 1660.42L1572.71 1661.22L886.681 1759.11L17.1579 1883.12L17.4483 1885.15ZM1573.23 1631.64C1571.32 1642.65 1571.61 1651.89 1572.32 1658.23L1655.96 1646.03L1573.23 1631.64ZM1599.34 1581.37C1592.7 1587.82 1587.14 1595.23 1582.81 1603.41L1661.05 1644.86L1599.34 1581.37ZM1664.56 1647.07L1664.62 1646.74L1664.85 1646.92L1664.57 1647.07L1664.56 1647.07ZM1664.26 1646.76L1664.23 1646.55L1664.29 1646.58L1664.26 1646.76ZM1664.23 1646.53L1664.19 1646.25L1664.32 1646.4L1664.23 1646.53ZM1666.53 1646.08L1668.48 1644.19L1671.19 1643.8L1666.53 1646.08ZM1664.19 1646.22L1663.99 1644.83L1664.61 1644.74L1664.44 1645.76L1664.19 1646.22ZM1747.22 1606.34C1742.93 1597.7 1737.51 1589.91 1731.09 1583.12L2856.3 486.177C2978.67 611.7 3079.9 754.932 3157.21 911.885L1747.21 1606.32L1747.22 1606.34ZM1707 1565.12C1698.69 1560.88 1689.68 1557.91 1680.2 1556.22L1946.99 7.3138C2119.45 37.0214 2285.49 93.5679 2440.53 175.41L1707 1565.12Z" fill="url(#paint0_radial_2003_139)"/>
</g>
<defs>
<radialGradient id="paint0_radial_2003_139" cx="0" cy="0" r="1" gradientUnits="userSpaceOnUse" gradientTransform="translate(1664.3 1647.33) rotate(81.8792) scale(1663.97 1663.93)">
<stop offset="0.078772" stop-color="white"/>
<stop offset="1" stop-color="white" stop-opacity="0"/>
</radialGradient>
</defs>
</svg>
