<svg width="1682" height="458" viewBox="0 0 1682 458" fill="none" xmlns="http://www.w3.org/2000/svg">
<path d="M1516.7 148.781L1490.45 102.688L1521.45 92.0517L1516.7 148.781Z" fill="white" stroke="black" stroke-width="1.5" stroke-linecap="round" stroke-linejoin="round"/>
<path d="M1585.15 120.678L1515.06 144.724L1494.43 95.4141L1567.84 70.2287L1585.15 120.678Z" fill="#6194FF" stroke="black" stroke-width="1.5" stroke-linecap="round" stroke-linejoin="round"/>
<path d="M1571.16 69.0959L1497.75 94.2812L1515.06 144.731L1588.47 119.545L1571.16 69.0959Z" fill="#6194FF" stroke="black" stroke-width="1.5" stroke-linecap="round" stroke-linejoin="round"/>
<path d="M1547.2 74.681L1546.96 78.7064L1503.61 93.5777L1516.7 148.783L1590.65 123.413L1576.46 64.361L1547.2 74.681Z" fill="white" stroke="black" stroke-width="1.5" stroke-linecap="round" stroke-linejoin="round"/>
<path d="M117.422 452.907L156.25 384.727L110.392 368.994L117.422 452.907Z" fill="white" stroke="black" stroke-width="2.21875" stroke-linecap="round" stroke-linejoin="round"/>
<path d="M16.1683 411.339L119.847 446.907L150.359 373.969L41.7689 336.715L16.1683 411.339Z" fill="#6194FF" stroke="black" stroke-width="2.21875" stroke-linecap="round" stroke-linejoin="round"/>
<path d="M36.8549 335.036L145.445 372.289L119.845 446.912L11.2543 409.659L36.8549 335.036Z" fill="#6194FF" stroke="black" stroke-width="2.21875" stroke-linecap="round" stroke-linejoin="round"/>
<path d="M72.2959 343.296L72.6594 349.25L136.779 371.247L117.421 452.905L8.0357 415.379L29.0233 328.031L72.2959 343.296Z" fill="white" stroke="black" stroke-width="2.21875" stroke-linecap="round" stroke-linejoin="round"/>
<path d="M518.023 87.3264L509.918 39.3594L481.729 49.7963L518.023 87.3264Z" fill="white" stroke="black" stroke-width="1.5" stroke-linecap="round" stroke-linejoin="round"/>
<path d="M463.599 28.4264L493.68 17.2891L504.817 47.3697L474.736 58.507L463.599 28.4264Z" fill="#6194FF" stroke="black" stroke-width="1.5" stroke-linecap="round" stroke-linejoin="round"/>
<path d="M467.48 38.902L470.015 34.429L480.709 41.6285L486.409 35.3375L504.818 47.3655L474.738 58.5028L467.48 38.902Z" fill="black" stroke="black" stroke-width="1.5" stroke-linecap="round" stroke-linejoin="round"/>
<path d="M482.517 30.503C483.332 32.7056 485.778 33.8297 487.981 33.0142C490.183 32.1987 491.308 29.7527 490.492 27.5502C489.677 25.3476 487.231 24.2234 485.028 25.0389C482.825 25.8544 481.701 28.3005 482.517 30.503Z" fill="black" stroke="black" stroke-width="1.5" stroke-linecap="round" stroke-linejoin="round"/>
<path d="M453.353 52.4048L455.863 55.121L495.287 40.5244L518.018 87.3275L450.779 112.223L426.588 62.0519L453.353 52.4048Z" fill="white" stroke="black" stroke-width="1.5" stroke-linecap="round" stroke-linejoin="round"/>
<path d="M466.875 92.9091L492.506 83.4191L479.485 59.1056L453.854 68.5955L466.875 92.9091Z" fill="#80A9FF" stroke="black" stroke-width="1.5" stroke-linecap="round" stroke-linejoin="round"/>
<path d="M458.392 77.0596L460.179 73.3782L470.447 79.0995L474.861 73.8905L492.505 83.4146L466.874 92.9046L458.392 77.0596Z" fill="black" stroke="black" stroke-width="1.5" stroke-linecap="round" stroke-linejoin="round"/>
<path d="M470.908 70.0026C471.86 71.7812 474.157 72.6675 476.04 71.9704C477.923 71.2733 478.666 69.2713 477.711 67.4838C476.76 65.7052 474.463 64.8189 472.58 65.516C470.697 66.2131 469.954 68.2152 470.908 70.0026Z" fill="black" stroke="black" stroke-width="1.5" stroke-linecap="round" stroke-linejoin="round"/>
<path d="M221.466 282.79L224.23 212.883L266.353 222.6L221.466 282.79Z" fill="white" stroke="black" stroke-width="1.5" stroke-linecap="round" stroke-linejoin="round"/>
<path d="M288.297 188.791L243.348 178.422L232.978 223.372L277.928 233.741L288.297 188.791Z" fill="#6194FF" stroke="black" stroke-width="1.5" stroke-linecap="round" stroke-linejoin="round"/>
<path d="M284.683 204.444L280.247 198.529L266.313 210.759L257.03 202.831L232.976 223.364L277.926 233.734L284.683 204.444Z" fill="black" stroke="black" stroke-width="1.5" stroke-linecap="round" stroke-linejoin="round"/>
<path d="M261.695 195.224C260.936 198.515 257.653 200.567 254.362 199.808C251.071 199.049 249.018 195.766 249.778 192.474C250.537 189.183 253.82 187.131 257.111 187.89C260.402 188.65 262.455 191.932 261.695 195.224Z" fill="black" stroke="black" stroke-width="1.5" stroke-linecap="round" stroke-linejoin="round"/>
<path d="M307.308 221.115L304.225 225.45L245.314 211.86L221.473 282.789L321.95 305.968L347.254 229.967L307.308 221.115Z" fill="white" stroke="black" stroke-width="1.5" stroke-linecap="round" stroke-linejoin="round"/>
<path d="M295.441 281.366L257.14 272.53L271.255 235.461L309.556 244.296L295.441 281.366Z" fill="#80A9FF" stroke="black" stroke-width="1.5" stroke-linecap="round" stroke-linejoin="round"/>
<path d="M304.635 257.198L301.41 252.275L287.813 262.319L280.563 255.698L257.141 272.52L295.442 281.355L304.635 257.198Z" fill="black" stroke="black" stroke-width="1.5" stroke-linecap="round" stroke-linejoin="round"/>
<path d="M285.487 249.431C284.456 252.143 281.342 253.829 278.528 253.179C275.715 252.53 274.287 249.811 275.321 247.086C276.352 244.375 279.466 242.689 282.28 243.338C285.093 243.987 286.521 246.707 285.487 249.431Z" fill="black" stroke="black" stroke-width="1.5" stroke-linecap="round" stroke-linejoin="round"/>
<path d="M1429.68 424.813L1432.45 354.906L1474.57 364.624L1429.68 424.813Z" fill="white" stroke="black" stroke-width="1.5" stroke-linecap="round" stroke-linejoin="round"/>
<path d="M1496.52 330.815L1451.57 320.445L1441.2 365.395L1486.15 375.765L1496.52 330.815Z" fill="#6194FF" stroke="black" stroke-width="1.5" stroke-linecap="round" stroke-linejoin="round"/>
<path d="M1492.9 346.468L1488.47 340.552L1474.53 352.783L1465.25 344.855L1441.19 365.388L1486.14 375.757L1492.9 346.468Z" fill="black" stroke="black" stroke-width="1.5" stroke-linecap="round" stroke-linejoin="round"/>
<path d="M1469.91 337.247C1469.15 340.538 1465.87 342.591 1462.58 341.831C1459.29 341.072 1457.24 337.789 1458 334.498C1458.76 331.207 1462.04 329.154 1465.33 329.914C1468.62 330.673 1470.67 333.956 1469.91 337.247Z" fill="black" stroke="black" stroke-width="1.5" stroke-linecap="round" stroke-linejoin="round"/>
<path d="M1515.53 363.139L1512.44 367.474L1453.53 353.883L1429.69 424.813L1530.17 447.992L1555.47 371.991L1515.53 363.139Z" fill="white" stroke="black" stroke-width="1.5" stroke-linecap="round" stroke-linejoin="round"/>
<path d="M1503.66 423.389L1465.36 414.553L1479.47 377.484L1517.77 386.32L1503.66 423.389Z" fill="#80A9FF" stroke="black" stroke-width="1.5" stroke-linecap="round" stroke-linejoin="round"/>
<path d="M1512.85 399.222L1509.63 394.298L1496.03 404.343L1488.78 397.722L1465.36 414.543L1503.66 423.379L1512.85 399.222Z" fill="black" stroke="black" stroke-width="1.5" stroke-linecap="round" stroke-linejoin="round"/>
<path d="M1493.71 391.455C1492.67 394.166 1489.56 395.852 1486.75 395.203C1483.93 394.554 1482.51 391.834 1483.54 389.11C1484.57 386.398 1487.69 384.713 1490.5 385.362C1493.31 386.011 1494.74 388.73 1493.71 391.455Z" fill="black" stroke="black" stroke-width="1.5" stroke-linecap="round" stroke-linejoin="round"/>
<path d="M1326.07 54.2779L1387.09 69.0469L1372.32 130.066L1311.3 115.297L1326.07 54.2779Z" fill="white" stroke="black" stroke-width="1.5" stroke-linecap="round" stroke-linejoin="round"/>
<path d="M1320.93 75.5288L1329.93 71.0328L1339.44 94.4069L1355.57 90.4149L1372.33 130.059L1311.31 115.29L1320.93 75.5288Z" fill="#6194FF" stroke="black" stroke-width="1.5" stroke-linecap="round" stroke-linejoin="round"/>
<path d="M1354.52 78.314C1353.44 82.7819 1356.18 87.2796 1360.65 88.361C1365.12 89.4424 1369.62 86.6976 1370.7 82.2297C1371.78 77.7618 1369.04 73.2642 1364.57 72.1828C1360.1 71.1014 1355.6 73.8461 1354.52 78.314Z" fill="black" stroke="black" stroke-width="1.5" stroke-linecap="round" stroke-linejoin="round"/>
<path d="M125.388 120.136L125.87 119.663C127.326 118.828 128.712 117.805 129.962 116.579C138.002 108.693 138.126 95.7784 130.249 87.747C127.893 85.345 125.076 83.6668 122.083 82.6748C131.666 72.5057 131.659 56.5627 121.965 46.4015C111.993 36.5128 96.0446 36.1887 85.7002 45.5817C84.7663 42.5702 83.1509 39.7302 80.7868 37.32C72.9011 29.2804 59.9941 29.1638 51.9545 37.0495C50.6963 38.2836 49.6554 39.6413 48.7917 41.0815L48.3097 41.5544C44.6233 37.796 38.5866 37.7377 34.8282 41.4241C31.0699 45.1105 31.0116 51.1472 34.698 54.9055L111.784 133.496C115.47 137.254 121.507 137.312 125.265 133.626C129.024 129.939 129.082 123.903 125.396 120.144L125.388 120.136Z" fill="white" stroke="black" stroke-linecap="round" stroke-linejoin="round"/>
<path d="M94.183 99.8101L68.0095 73.1259L77.5606 63.7577L80.7662 67.0258L74.4832 73.1885L94.2455 93.3364L100.839 86.8692L104.045 90.1373L94.183 99.8101Z" fill="#0052FF" stroke="black" stroke-linecap="round" stroke-linejoin="round"/>
<path d="M102.421 74.332L112.471 64.4749L103.687 55.5203L93.6378 65.3774L90.3841 62.0602L88.9522 78.7582L105.683 77.6573L102.421 74.332Z" fill="#0052FF" stroke="black" stroke-linecap="round" stroke-linejoin="round"/>
<path d="M1681 411.633H1637.81V355.953H1671.92L1681 365.509V411.633Z" fill="white" stroke="black" stroke-linecap="round" stroke-linejoin="round"/>
<path d="M1681 399.766H1637.81V411.629H1681V399.766Z" fill="#80A9FF" stroke="black" stroke-linecap="round" stroke-linejoin="round"/>
<path d="M1681 365.509H1671.71V355.953L1681 365.509Z" fill="#CCCCCC" stroke="black" stroke-linecap="round" stroke-linejoin="round"/>
<path d="M1647.86 373.648H1670.96" stroke="black" stroke-linecap="round" stroke-linejoin="round"/>
<path d="M1647.86 378.312H1670.96" stroke="black" stroke-linecap="round" stroke-linejoin="round"/>
<path d="M1647.86 382.969H1670.96" stroke="black" stroke-linecap="round" stroke-linejoin="round"/>
<path d="M1647.86 388.195H1670.96" stroke="black" stroke-linecap="round" stroke-linejoin="round"/>
<path d="M1647.86 393.625H1670.96" stroke="black" stroke-linecap="round" stroke-linejoin="round"/>
<path d="M479.32 455.677L531.376 435.08L504.824 367.977L463.715 384.243L457.325 400.09L479.32 455.677Z" fill="white" stroke="black" stroke-width="2" stroke-linecap="round" stroke-linejoin="round"/>
<path d="M473.663 441.379L525.719 420.781L531.376 435.079L479.321 455.676L473.663 441.379Z" fill="#80A9FF" stroke="black" stroke-width="2" stroke-linecap="round" stroke-linejoin="round"/>
<path d="M457.324 400.095L468.521 395.664L463.965 384.148L457.324 400.095Z" fill="#CCCCCC" stroke="black" stroke-width="2" stroke-linecap="round" stroke-linejoin="round"/>
<path d="M501.137 394.094L473.301 405.108" stroke="black" stroke-width="2" stroke-linecap="round" stroke-linejoin="round"/>
<path d="M503.363 399.719L475.528 410.733" stroke="black" stroke-width="2" stroke-linecap="round" stroke-linejoin="round"/>
<path d="M505.582 405.328L477.747 416.342" stroke="black" stroke-width="2" stroke-linecap="round" stroke-linejoin="round"/>
<path d="M508.078 411.633L480.243 422.647" stroke="black" stroke-width="2" stroke-linecap="round" stroke-linejoin="round"/>
<path d="M510.66 418.172L482.825 429.186" stroke="black" stroke-width="2" stroke-linecap="round" stroke-linejoin="round"/>
</svg>
