<svg width="87" height="86" viewBox="0 0 87 86" fill="none" xmlns="http://www.w3.org/2000/svg">
<path d="M46.2091 8.25781C46.2091 7.54504 45.926 6.86147 45.422 6.35746C44.9179 5.85346 44.2344 5.57031 43.5216 5.57031C42.8088 5.57031 42.1253 5.85346 41.6213 6.35746C41.1172 6.86147 40.8341 7.54504 40.8341 8.25781V13.5611C40.8341 14.2739 41.1172 14.9575 41.6213 15.4615C42.1253 15.9655 42.8088 16.2486 43.5216 16.2486C44.2344 16.2486 44.9179 15.9655 45.422 15.4615C45.926 14.9575 46.2091 14.2739 46.2091 13.5611V8.25781ZM64.5235 36.8886C63.7767 33.9849 62.4209 31.2733 60.546 28.9336C58.6873 26.5776 56.3559 24.6368 53.7019 23.2361C51.0544 21.8465 48.1537 21.0055 45.1735 20.7636C42.1849 20.5391 39.1823 20.9419 36.3585 21.9461C33.5191 22.9363 30.9189 24.511 28.726 26.5686C26.5567 28.5915 24.8144 31.0283 23.6019 33.7353C22.4168 36.4839 21.8188 39.4497 21.846 42.4428C21.763 45.8998 22.5026 49.3271 24.0041 52.4422C25.5056 55.5572 27.7258 58.2709 30.4818 60.3595L31.736 61.542C32.811 62.6528 32.811 62.6528 32.7752 65.1253V66.272C32.7321 67.0648 32.8541 67.8579 33.1335 68.6012C33.3843 69.3966 33.8287 70.1241 34.4235 70.7153C34.6959 70.9948 34.9945 71.2456 35.3194 71.4678V75.0511C35.2604 75.701 35.3306 76.3561 35.526 76.9787C35.7213 77.6013 36.038 78.1791 36.4577 78.6787C36.8774 79.1784 37.3918 79.59 37.9714 79.8899C38.5509 80.1898 39.1841 80.3721 39.8344 80.4261H47.001C48.3172 80.3166 49.536 79.6889 50.3894 78.6809C51.2428 77.673 51.6609 76.3673 51.5518 75.0511V71.4678C51.8753 71.2482 52.1755 70.996 52.4477 70.7153C53.0103 70.1205 53.4403 69.411 53.7019 68.637C53.9764 67.8801 54.0982 67.0763 54.0602 66.272V64.9461C54.0602 62.9753 54.0602 62.9753 55.171 61.7211L56.5327 60.467C61.1268 56.894 64.1268 51.6536 64.8819 45.8828C65.4094 42.8938 65.2872 39.8262 64.5235 36.8886ZM46.356 74.9795H40.6944V72.722H46.356V74.9795ZM43.5252 37.1395C42.3562 37.1395 41.2352 37.6038 40.4086 38.4304C39.582 39.257 39.1177 40.378 39.1177 41.547C39.1177 42.4973 38.7402 43.4088 38.0682 44.0808C37.3961 44.7528 36.4847 45.1303 35.5343 45.1303C34.584 45.1303 33.6726 44.7528 33.0005 44.0808C32.3285 43.4088 31.951 42.4973 31.951 41.547C31.9415 40.0244 32.2344 38.515 32.8127 37.1065C33.391 35.698 34.2431 34.4183 35.3198 33.3416C36.3965 32.2649 37.6762 31.4127 39.0847 30.8345C40.4932 30.2562 42.0026 29.9633 43.5252 29.9728C44.4755 29.9728 45.387 30.3503 46.059 31.0223C46.731 31.6944 47.1085 32.6058 47.1085 33.5561C47.1085 34.5065 46.731 35.4179 46.059 36.0899C45.387 36.7619 44.4755 37.1395 43.5252 37.1395ZM76.3485 46.0978H69.791C69.0783 46.0978 68.3947 45.8147 67.8907 45.3107C67.3867 44.8067 67.1035 44.1231 67.1035 43.4103C67.1035 42.6975 67.3867 42.014 67.8907 41.51C68.3947 41.006 69.0783 40.7228 69.791 40.7228H76.3485C77.0613 40.7228 77.7449 41.006 78.2489 41.51C78.7529 42.014 79.036 42.6975 79.036 43.4103C79.036 44.1231 78.7529 44.8067 78.2489 45.3107C77.7449 45.8147 77.0613 46.0978 76.3485 46.0978ZM63.1619 24.562C62.8088 24.5636 62.4589 24.4948 62.1327 24.3594C61.8066 24.224 61.5108 24.0249 61.2627 23.7736C60.7594 23.2697 60.4767 22.5867 60.4767 21.8745C60.4767 21.1623 60.7594 20.4792 61.2627 19.9753L65.921 15.317C66.4305 14.8423 67.1043 14.5838 67.8006 14.5961C68.4968 14.6084 69.1611 14.8904 69.6535 15.3828C70.1459 15.8752 70.4279 16.5395 70.4402 17.2358C70.4525 17.932 70.1941 18.6059 69.7193 19.1153L65.061 23.7736C64.8141 24.0265 64.5186 24.2268 64.1921 24.3623C63.8657 24.4977 63.5153 24.5657 63.1619 24.562ZM71.4035 69.1386C70.6948 69.1198 70.0181 68.8389 69.5043 68.3503L64.846 63.692C64.5312 63.3799 64.2984 62.9948 64.1685 62.571C64.0386 62.1471 64.0155 61.6977 64.1013 61.2628C64.1872 60.8279 64.3793 60.421 64.6605 60.0783C64.9417 59.7356 65.3034 59.4678 65.7132 59.2988C66.2049 59.0915 66.7477 59.0374 67.2706 59.1435C67.7936 59.2497 68.2724 59.5111 68.6444 59.8936L73.3027 64.552C73.5562 64.799 73.7577 65.0944 73.8953 65.4205C74.0329 65.7467 74.1038 66.0971 74.1038 66.4511C74.1038 66.8052 74.0329 67.1556 73.8953 67.4818C73.7577 67.8079 73.5562 68.1033 73.3027 68.3503C72.7992 68.8545 72.1161 69.138 71.4035 69.1386ZM23.9243 24.562C23.2118 24.5614 22.5287 24.2778 22.0252 23.7736L17.3668 19.1153C16.8632 18.6069 16.5821 17.9192 16.5854 17.2035C16.5888 16.4878 16.8763 15.8028 17.3848 15.2991C17.8932 14.7954 18.5809 14.5143 19.2966 14.5177C20.0123 14.521 20.6973 14.8085 21.201 15.317L25.8235 19.9753C26.1989 20.3512 26.4545 20.8298 26.558 21.3508C26.6615 21.8718 26.6083 22.4118 26.405 22.9026C26.2018 23.3934 25.8577 23.813 25.4162 24.1083C24.9747 24.4036 24.4555 24.5615 23.9243 24.562ZM15.7185 69.1386C15.3642 69.1489 15.0118 69.0839 14.6844 68.948C14.3571 68.8122 14.0622 68.6084 13.8193 68.3503C13.3161 67.8464 13.0334 67.1633 13.0334 66.4511C13.0334 65.739 13.3161 65.0559 13.8193 64.552L18.4777 59.8936C18.9871 59.4189 19.661 59.1605 20.3572 59.1728C21.0535 59.1851 21.7178 59.4671 22.2102 59.9595C22.7026 60.4519 22.9846 61.1162 22.9969 61.8124C23.0092 62.5087 22.7507 63.1825 22.276 63.692L17.6535 68.3861C17.1252 68.8699 16.4349 69.1384 15.7185 69.1386ZM17.2235 46.0978H10.666C9.95325 46.0978 9.26967 45.8147 8.76567 45.3107C8.26166 44.8067 7.97852 44.1231 7.97852 43.4103C7.97852 42.6975 8.26166 42.014 8.76567 41.51C9.26967 41.006 9.95325 40.7228 10.666 40.7228H17.2235C17.9363 40.7228 18.6199 41.006 19.1239 41.51C19.6279 42.014 19.911 42.6975 19.911 43.4103C19.911 44.1231 19.6279 44.8067 19.1239 45.3107C18.6199 45.8147 17.9363 46.0978 17.2235 46.0978Z" fill="#005FF8"/>
</svg>
