<svg width="465" height="109" viewBox="0 0 465 109" fill="none" xmlns="http://www.w3.org/2000/svg">
<path d="M342.185 82.2076L342.12 83.9692L342.03 82.0639C339.548 79.8067 336.493 78.6719 332.856 78.6719C329.701 78.6719 326.902 79.5738 324.457 81.3751L324.473 82.5396L324.415 81.4098C323.871 81.8136 323.346 82.2596 322.838 82.7502C322.809 82.7775 322.782 82.8072 322.753 82.8344L322.579 89.9232L322.489 83.0996C319.919 85.7408 318.654 88.8132 318.701 92.3167C318.763 97.0219 319.965 100.729 322.306 103.434C322.888 104.106 323.531 104.693 324.235 105.198L324.333 101.311L324.386 105.3C324.805 105.59 325.246 105.848 325.707 106.08L325.63 104.889L325.942 106.199C327.757 107.062 329.894 107.493 332.351 107.493C333.96 107.493 335.445 107.307 336.807 106.943L336.793 105.9L336.873 106.925C339.269 106.274 341.284 105.057 342.92 103.276C345.498 100.466 346.755 96.6155 346.69 91.727C346.661 89.5045 346.024 87.3885 344.781 85.3741C344.003 84.1476 343.137 83.0946 342.187 82.2026L342.185 82.2076ZM337.951 98.2781C336.805 99.3237 335.115 99.8465 332.882 99.8465C330.875 99.8465 329.248 99.2246 328.001 97.9832C326.754 96.7419 326.12 95.1933 326.096 93.3375C326.069 91.3504 326.819 89.6779 328.339 88.3176C329.862 86.9574 331.697 86.2785 333.847 86.2785C335.825 86.2785 337.279 86.9772 338.201 88.3771C339.125 89.7745 339.599 91.5857 339.629 93.8083C339.655 95.7434 339.095 97.2325 337.949 98.2781H337.951Z" fill="white"/>
<path fill-rule="evenodd" clip-rule="evenodd" d="M351.558 78.6642C351.559 78.6641 351.561 78.6641 351.562 78.6641H351.558L351.558 78.6642ZM351.558 78.6642C350.981 78.6797 350.402 78.7164 349.825 78.7761C349.055 78.8553 348.613 79.0272 348.503 79.2918C348.42 79.4772 348.381 79.7939 348.387 80.244L348.405 81.5921C348.409 81.961 348.411 82.5501 348.407 83.3555C348.403 84.1609 348.406 84.8156 348.412 85.3178C348.403 86.7973 348.411 88.522 348.438 90.4921C348.464 92.4621 348.473 94.2719 348.466 95.9232C348.459 97.5746 348.441 99.3921 348.409 101.374C348.391 102.168 348.39 103.224 348.408 104.545L348.425 105.853C348.44 106.936 348.689 107.477 349.176 107.477H350.02L351.558 78.6642ZM365.655 79.1258C366.255 79.1393 366.698 79.1451 366.984 79.1451L366.985 79.1489C367.699 79.1489 368.061 79.4792 368.07 80.1398L368.073 80.4179C367.993 85.175 367.994 90.5926 368.075 96.6708L368.207 106.581C368.213 107.031 367.788 107.255 366.929 107.255H366.628C366.171 107.255 365.37 107.236 364.227 107.195C363.083 107.155 362.268 107.135 361.782 107.135C361.182 107.135 360.338 106.011 359.25 103.765C358.604 102.419 357.785 100.541 356.796 98.1367C355.807 95.7321 355.209 94.2913 355.002 93.8161C354.986 94.8205 354.923 98.5211 354.807 104.916C354.809 105.074 354.808 105.405 354.8 105.907C354.792 106.409 354.776 106.832 354.752 107.176C354.725 107.386 354.455 107.493 353.941 107.493H351.093L352.228 78.6719C353.298 78.6719 354.1 78.6854 354.629 78.7105C355.03 78.7105 355.304 78.8689 355.45 79.1856C355.745 79.8211 357.599 83.8384 361.014 91.2377C361.14 85.6868 361.224 82.2238 361.262 80.8505C361.304 79.6086 361.694 78.9867 362.438 78.9867C362.722 78.9867 362.923 78.9983 363.038 79.0253C363.269 79.0524 363.611 79.0717 364.069 79.0852C364.527 79.0987 365.056 79.1122 365.655 79.1258Z" fill="white"/>
<path d="M459.761 102.201C459.663 101.475 459.427 101.114 459.048 101.114C458.729 101.114 458.206 101.108 457.479 101.095C456.752 101.081 456.229 101.075 455.91 101.075C455.358 101.075 454.755 101.089 454.101 101.116C453.447 101.143 452.858 101.157 452.336 101.157C451.843 101.157 451.544 101.102 451.44 100.994C451.336 100.886 451.282 100.577 451.275 100.067L451.238 97.3265C451.234 96.9769 451.275 96.7683 451.362 96.7027C451.448 96.6351 451.65 96.5887 451.97 96.5617C452.348 96.5617 453.125 96.5482 454.301 96.5211C455.479 96.4941 456.256 96.4806 456.632 96.4806C457.271 96.4535 457.669 96.3936 457.829 96.299C457.988 96.2044 458.065 95.9842 458.06 95.6346L457.994 90.6361C457.989 90.3135 457.951 90.1127 457.877 90.0315C457.803 89.9504 457.62 89.9099 457.33 89.9099C456.778 89.9099 455.964 89.9369 454.889 89.991C453.813 90.0451 453.016 90.0721 452.491 90.0721C451.94 90.0721 451.567 90.0122 451.377 89.8905C451.186 89.7689 451.088 89.4811 451.082 89.0233C451.074 88.4864 451.062 88.0016 451.041 87.5728C451.021 87.1441 451.008 86.6322 451 86.0412C450.996 85.7457 451.197 85.5989 451.604 85.5989C452.126 85.5989 452.862 85.5854 453.806 85.5584C454.75 85.5313 455.454 85.5178 455.92 85.5178C456.268 85.5178 456.813 85.4985 457.553 85.4579C458.294 85.4174 458.853 85.3981 459.229 85.3981C459.491 85.3981 459.65 85.3247 459.707 85.1759C459.764 85.0292 459.789 84.7394 459.783 84.3087L459.758 82.414C459.749 81.7419 459.676 80.6274 459.54 79.0688C459.506 78.7462 459.199 78.5859 458.618 78.5859C457.975 78.5859 456.964 78.5917 455.591 78.6053L455.521 80.9809L455.489 78.6053C455.47 78.6053 455.455 78.6053 455.437 78.6053C455.397 78.6053 455.359 78.6053 455.32 78.6053L455.254 82.4256L455.203 78.6072C453.868 78.6188 452.852 78.6246 452.167 78.6246C451.354 78.6246 450.14 78.6188 448.527 78.6053C446.914 78.5917 445.73 78.5859 444.973 78.5859C444.741 78.5859 444.575 78.6535 444.475 78.7868C444.374 78.922 444.299 79.2175 444.246 79.6733C444.067 81.4193 443.988 83.1673 444.011 84.9133C444.02 85.6124 444.04 86.6052 444.072 87.8954C444.103 89.1856 444.122 90.0856 444.129 90.5955C444.145 91.8316 444.124 93.5641 444.066 95.7949C444.008 98.0257 443.988 99.7717 444.005 101.035C444.035 103.32 444.072 104.958 444.114 105.952C444.121 106.493 444.306 106.862 444.66 107.067L444.595 102.213L444.784 107.13C444.834 107.152 444.887 107.171 444.943 107.186L445.002 96.7065L445.142 107.227C445.169 107.231 445.195 107.239 445.222 107.242C447.348 107.484 450.314 107.606 454.121 107.606H458.393C458.596 107.606 458.901 107.579 459.307 107.524C459.887 107.416 460.174 107.148 460.168 106.719C460.146 105.106 460.009 103.602 459.759 102.205L459.761 102.201Z" fill="white"/>
<path d="M439.207 104.014L439.236 106.195C439.327 106.132 439.418 106.069 439.507 106L439.317 91.6904C438.857 91.2267 438.305 90.7078 437.658 90.1315C436.524 89.1222 435.723 88.38 435.252 87.9011C434.428 87.0254 434.01 86.2565 434.002 85.5925C433.996 85.167 434.138 84.8484 434.425 84.6366C434.713 84.4248 435.031 84.2989 435.379 84.2589C435.728 84.2188 436.206 84.1997 436.818 84.1997H438.126C438.301 84.1997 438.592 84.2054 438.997 84.2188C439.405 84.2321 439.71 84.2379 439.913 84.2379C440.406 84.2379 440.724 84.1119 440.867 83.8601C441.01 83.6082 441.075 83.177 441.067 82.5665C441.049 81.2386 440.902 80.0442 440.626 78.9833C440.533 78.6113 440.284 78.3862 439.875 78.306C438.505 78.0141 437.181 77.8672 435.902 77.8672C434.941 77.8672 434.029 77.9778 433.172 78.1954L433.078 81.8128L433.03 78.2316C431.918 78.5312 430.893 79.012 429.955 79.6797C428.256 80.8875 427.244 82.3948 426.919 84.1978C426.837 84.5966 426.798 84.9934 426.803 85.3922C426.824 86.9052 427.176 88.2331 427.859 89.3741C428.543 90.515 429.547 91.7171 430.872 92.9782C432.197 94.2394 433.05 95.1075 433.435 95.5864C433.641 95.8516 433.974 96.2427 434.433 96.7617C434.891 97.2788 435.148 97.5783 435.207 97.6584C435.621 98.1354 435.829 98.5743 435.835 98.973C435.841 99.4767 435.644 99.8698 435.24 100.148C434.837 100.427 434.36 100.566 433.806 100.566C433.138 100.566 432.114 100.116 430.736 99.2134C430.472 99.0017 430.224 98.8948 429.99 98.8948C429.844 98.8948 429.571 99.1199 429.172 99.5721C428.914 99.864 428.53 100.475 428.02 101.404C427.51 102.333 427.212 102.863 427.126 102.997C427.012 103.209 426.955 103.329 426.955 103.356C426.957 103.489 427.061 103.634 427.266 103.793C427.414 103.926 427.708 104.191 428.148 104.588C428.59 104.987 428.943 105.279 429.206 105.464C430.94 106.843 432.779 107.534 434.727 107.534C436.064 107.534 437.382 107.202 438.681 106.538C438.855 106.445 439.023 106.34 439.187 106.229L439.205 104.016L439.207 104.014Z" fill="white"/>
<path d="M440.197 92.6447C439.967 92.3737 439.687 92.0704 439.361 91.7422L439.694 105.85C440.33 105.312 440.868 104.629 441.304 103.793C441.957 102.545 442.376 101.257 442.561 99.9312C442.64 99.2939 442.676 98.7101 442.669 98.1796C442.655 97.0921 442.454 96.1419 442.065 95.333C441.676 94.524 441.054 93.6273 440.197 92.6447Z" fill="white"/>
<path d="M420.03 79.1713C419.992 79.1226 419.953 79.0816 419.913 79.0543C419.779 78.9586 419.537 78.8982 419.184 78.8708C414.044 78.6816 410.636 78.5859 408.962 78.5859H408.917C408.476 78.5859 408.172 78.8435 408.003 79.3587C407.478 81.7471 405.898 89.9058 403.264 103.831C403.207 104.02 403.122 104.318 403.012 104.726C402.899 105.134 402.817 105.499 402.763 105.825C402.708 106.151 402.682 106.463 402.686 106.762C402.691 107.142 403.002 107.331 403.619 107.331C403.882 107.331 404.529 107.365 405.558 107.433C405.733 107.445 405.891 107.454 406.041 107.464L406.135 101.341L406.115 107.468C406.81 107.511 407.246 107.534 407.41 107.534H407.982C409.185 107.534 409.816 107.345 409.868 106.965C409.95 106.449 410.057 105.749 410.193 104.867C410.329 103.985 410.457 103.183 410.579 102.465C410.702 101.745 410.817 101.073 410.925 100.449C411.007 99.9611 411.327 99.6879 411.883 99.6352C412.47 99.6079 413.299 99.5806 414.371 99.5533C415.443 99.5259 416.272 99.485 416.858 99.4303H416.947C417.417 99.4303 417.731 99.8382 417.887 100.652C417.983 101.194 418.14 102.002 418.361 103.075C418.58 104.147 418.753 104.941 418.876 105.458C418.907 105.567 418.945 105.751 418.993 106.008C419.041 106.266 419.079 106.463 419.111 106.6C419.142 106.736 419.224 106.865 419.359 106.986C419.493 107.109 419.663 107.169 419.868 107.169H420.079L420.028 79.1713H420.03ZM415.948 93.8553C414.508 93.8553 413.422 93.8007 412.686 93.6933C412.274 93.6387 412.067 93.4767 412.063 93.2055L412.062 93.0826C413.051 87.9798 413.587 85.2244 413.67 84.8166C413.725 84.5181 413.839 84.3678 414.016 84.3678C414.221 84.3678 414.37 84.4907 414.462 84.7347C415.724 89.1057 416.465 91.82 416.686 92.8777C416.749 93.1489 416.781 93.3128 416.781 93.3655C416.786 93.6914 416.509 93.8533 415.95 93.8533L415.948 93.8553Z" fill="white"/>
<path d="M426.232 101.83C425.526 99.5232 424.567 95.8722 423.354 90.8767C422.173 86.0101 421.176 82.3454 420.362 79.875L420.272 107.165L422.546 107.165L422.522 105.397L422.7 107.165L423.439 107.165L423.465 104.722L423.498 107.165C423.93 107.165 424.481 107.178 425.157 107.206C425.863 107.233 426.376 107.247 426.699 107.247C427.081 107.247 427.268 107.071 427.264 106.718C427.261 106.501 427.244 106.351 427.213 106.271C426.619 103.475 426.291 101.996 426.23 101.832L426.232 101.83Z" fill="white"/>
<path d="M398.758 93.5657C398.52 93.4282 398.4 93.279 398.397 93.116C398.397 93.061 398.426 93.006 398.484 92.951C398.774 92.5406 399.02 92.2126 399.225 91.9671C400.712 90.3549 401.438 88.3754 401.406 86.0247C401.39 84.7954 401.169 83.7094 400.743 82.7668C400.316 81.8242 399.671 81.0662 398.807 80.4928C397.943 79.9193 397.034 79.448 396.084 79.0788C395.665 78.9158 395.19 78.7745 394.667 78.6507L394.655 82.4664L394.604 78.635C393.958 78.4858 393.238 78.366 392.438 78.2776C390.958 78.1127 389.62 78.0047 388.421 77.9497C387.225 77.8947 385.754 77.8672 384.01 77.8672C382.827 77.8672 382.241 78.2226 382.251 78.9335C382.265 79.9999 382.303 81.7614 382.366 84.22C382.428 86.6787 382.466 88.4264 382.48 89.4653C382.505 91.2955 382.577 93.9938 382.699 97.558C382.821 101.122 382.893 103.834 382.918 105.692C382.923 106.075 382.941 106.307 382.972 106.389C383.003 106.499 383.04 106.593 383.086 106.676C383.132 106.758 383.192 106.825 383.265 106.88C383.34 106.935 383.415 106.976 383.487 107.004C383.562 107.031 383.665 107.059 383.799 107.086C383.933 107.114 384.035 107.133 384.11 107.147C384.184 107.161 384.31 107.175 384.486 107.188C384.663 107.202 384.782 107.208 384.841 107.208C385.437 107.255 386.058 107.296 386.693 107.332L386.545 96.2384L386.895 107.344C386.965 107.347 387.035 107.351 387.106 107.355L387.079 105.388L387.169 107.357C389.374 107.475 391.803 107.534 394.466 107.534H395.62C396.489 107.524 397.29 107.414 398.022 107.21L398.05 104.351L398.088 107.19C399.195 106.872 400.144 106.332 400.934 105.566C402.262 104.282 402.927 102.697 402.931 100.812L402.919 99.8694C402.9 98.5026 402.493 97.2811 401.695 96.2011C400.897 95.1229 399.918 94.2412 398.756 93.5578L398.758 93.5657ZM389.075 85.3708C389.07 85.0154 389.148 84.7974 389.31 84.7149C389.471 84.6324 389.804 84.5912 390.307 84.5912C391.637 84.5912 392.577 84.7208 393.127 84.98C393.676 85.2392 393.958 85.848 393.971 86.8044C393.98 87.4878 393.782 88.1024 393.375 88.6484C392.825 89.4123 391.721 89.7952 390.066 89.7952C389.505 89.7952 389.221 89.644 389.217 89.3455C389.141 88.1437 389.097 87.0106 389.082 85.9442L389.075 85.3708ZM394.676 101.598C394.341 101.98 393.894 102.212 393.334 102.295C393.01 102.35 392.537 102.377 391.917 102.377H391.562C390.763 102.377 390.172 102.322 389.786 102.214C389.489 102.132 389.339 101.969 389.335 101.723L389.335 101.682C389.33 101.299 389.315 100.671 389.288 99.7967C389.262 98.9229 389.247 98.2944 389.242 97.9115C389.236 97.4736 389.764 97.2556 390.829 97.2556C393.694 97.2556 395.141 98.2257 395.167 100.166C395.175 100.739 395.011 101.219 394.676 101.599L394.676 101.598Z" fill="white"/>
<path d="M397.721 13.1733C391.753 19.767 389.087 29.3669 389.725 41.9917C390.065 48.72 391.447 54.5727 393.864 59.5565C394.998 61.8857 396.454 63.9869 398.21 65.8738L397.721 13.1733Z" fill="white"/>
<path d="M406.466 6.89268C403.04 8.5052 400.208 10.5227 397.948 12.94L398.857 66.5674C399.846 67.5559 400.925 68.4837 402.094 69.3447L401.996 61.2641L402.415 69.568C403.357 70.2452 404.337 70.8894 405.399 71.4858C406.429 72.0649 407.502 72.5731 408.62 73.0291L406.474 6.89232L406.466 6.89268Z" fill="white"/>
<path d="M448.863 7.59958L448.755 11.127L448.429 7.29376C443.01 3.55816 436.414 1.86383 428.61 2.22472C423.609 2.45601 419.122 3.04581 415.126 3.97645L415.081 5.08163L415.027 3.99986C414.513 4.11764 414.007 4.24757 413.509 4.37714L413.346 12.3633L412.95 4.52834C411.068 5.05412 409.306 5.66208 407.665 6.35846L409.301 73.2961C413.762 74.97 418.927 75.6713 424.803 75.3996C427.249 75.2865 429.536 75.0804 431.702 74.7922L432.032 73.3542L432.103 74.7424C433.158 74.5933 434.182 74.4206 435.173 74.2306L434.992 70.6414L435.603 74.1417C438.154 73.6352 440.488 72.9882 442.574 72.1898C445.443 71.0669 447.984 69.7585 450.199 68.2835L450.166 63.3461L450.552 68.054C454.362 65.446 457.191 62.3067 459.023 58.6307C461.961 52.7411 463.167 44.6503 462.647 34.3579C462.18 25.1222 458.9 17.3391 452.807 11.0085C451.57 9.72447 450.256 8.58815 448.855 7.58743L448.863 7.59958ZM440.109 52.4292C437.305 55.3041 432.311 56.9076 425.127 57.2399C422.595 57.357 420.533 57.0888 418.948 56.435C417.355 55.7817 415.702 54.5357 413.971 52.6978C411.28 49.6446 409.803 45.6139 409.55 40.6052C409.28 35.2589 410.748 30.6658 413.952 26.8135C417.156 22.9612 421.987 20.8888 428.436 20.5906C431.703 20.4395 434.539 21.4303 436.936 23.5695C439.333 25.7087 441.054 28.1236 442.09 30.8209C443.127 33.5182 443.715 36.2487 443.855 39.0188C444.161 45.0905 442.913 49.5606 440.109 52.4355L440.109 52.4292Z" fill="white"/>
<path fill-rule="evenodd" clip-rule="evenodd" d="M363.106 9.28551L362.863 4.46292C370.519 6.65584 376.947 11.4673 382.141 18.8974C385.561 23.9068 387.413 29.2636 387.701 34.9576C388.334 47.4866 385.436 57.5091 379.007 65.0253C376.793 67.6158 374.262 69.7842 371.431 71.5444L370.964 64.3274L371.232 71.6664L371.082 71.7569C370.815 71.9179 370.55 72.0776 370.277 72.2308L369.891 68.4257L370.088 72.3327C364.983 75.1845 358.944 76.779 351.963 77.1018C340.653 77.6249 331.834 74.5582 325.501 67.9021C324.161 66.4967 322.959 64.9574 321.876 63.3095L320.562 20.1698C321.803 18.3261 323.251 16.5318 324.916 14.8009C331.942 7.4927 340.485 3.60352 350.545 3.13829C354.902 2.93681 358.957 3.36761 362.716 4.42555L363.106 9.28551ZM315.094 39.81C314.753 33.0633 316.359 26.8546 319.902 21.1797L321.494 62.692C317.697 56.6351 315.559 49.0145 315.094 39.81ZM368.13 50.2887C367.216 51.494 366.159 52.5879 364.974 53.5528L364.642 53.8211C360.008 57.4359 353.627 59.1047 347.204 57.8384C336.906 55.8074 330.201 46.9482 331.582 37.6351L357.563 42.7627L358.288 39.7627L332.308 34.635C333.756 30.3795 336.808 26.9011 340.711 24.6347L341.074 24.4283C343.675 22.9849 346.64 22.0766 349.753 21.8189L350.292 21.7814C352.115 21.676 353.982 21.7961 355.852 22.1647C359.91 22.9631 363.408 24.824 366.075 27.3553L366.148 27.4278C367.337 28.5653 368.357 29.837 369.184 31.2062L369.269 31.3498C369.426 31.6122 369.573 31.8793 369.716 32.1466L369.752 32.2166C371.569 35.7269 372.171 39.7907 371.181 43.8775C370.792 45.4883 370.18 46.9998 369.378 48.398L369.165 48.7618C368.965 49.0997 368.751 49.4257 368.527 49.7478L368.13 50.2887Z" fill="white"/>
<path d="M301.407 57.6593C300.563 57.1745 300.13 56.6439 300.128 56.0676C300.127 55.8755 300.226 55.6834 300.446 55.4914C301.492 54.0461 302.389 52.8844 303.127 52.0154C308.495 46.3166 311.161 39.3281 311.126 31.0223C311.107 26.6773 310.349 22.8446 308.852 19.515C307.354 16.1854 305.068 13.5052 301.992 11.4836C298.917 9.45294 295.682 7.78813 292.299 6.48921C288.916 5.19029 284.583 4.24812 279.308 3.67184L278.883 16.8257L278.597 3.59866C274.155 3.123 270.074 2.78455 266.355 2.59245L263.942 3.15959L260.06 2.34548C257.033 2.2723 253.625 2.22656 249.867 2.22656L249.649 2.86688L249.556 2.22656C249.416 2.22656 249.285 2.22656 249.145 2.22656C248.874 2.22656 248.634 2.24486 248.373 2.254L248.255 7.50456L247.702 2.28144C244.436 2.54672 242.807 3.78161 242.817 5.98611C242.833 9.74565 242.909 15.975 243.057 24.6649C243.204 33.3549 243.28 39.5293 243.296 43.1974C243.324 49.6645 243.495 59.196 243.819 71.7919C244.133 84.3877 244.314 93.965 244.342 100.524C244.348 101.877 244.402 102.691 244.513 102.984C244.615 103.368 244.757 103.707 244.918 104C245.08 104.292 245.291 104.53 245.553 104.722C245.814 104.914 246.085 105.061 246.346 105.161C246.607 105.253 246.979 105.353 247.46 105.454C247.942 105.555 248.303 105.619 248.574 105.674C248.834 105.719 249.286 105.774 249.917 105.82C250.549 105.866 250.98 105.893 251.19 105.893C253.215 106.049 255.331 106.186 257.486 106.314L257.122 103.076L258.83 106.396C262.649 106.607 266.659 106.762 270.868 106.872L273.361 106.103L279.629 107.027C281.593 107.046 283.578 107.055 285.622 107.055H289.741C290.713 107.046 291.655 107 292.577 106.918L292.524 94.5321L294.02 106.771C299.99 106.021 304.931 103.798 308.824 100.112C313.616 95.5749 316.047 89.9767 316.129 83.3175L316.115 79.9879C316.095 75.1672 314.673 70.8405 311.861 67.0353C309.038 63.2208 305.567 60.1108 301.428 57.6959L301.407 57.6593ZM267.027 28.708C267.022 27.4548 267.309 26.6773 267.89 26.3938C268.47 26.101 269.662 25.9638 271.456 25.9638C276.216 25.9638 279.576 26.4212 281.534 27.3359C283.492 28.2507 284.484 30.4003 284.498 33.7756C284.508 36.1905 283.776 38.3584 282.311 40.2885C280.308 42.987 276.355 44.3408 270.432 44.3408C268.427 44.3408 267.413 43.8102 267.408 42.7492C267.179 38.5048 267.052 34.4983 267.036 30.7296L267.027 28.6989L267.027 28.708ZM286.545 86.0342C285.338 87.388 283.728 88.2022 281.714 88.4949C280.553 88.687 278.859 88.7876 276.644 88.7876H275.372C272.515 88.7876 270.4 88.5955 269.025 88.2113C267.961 87.9186 267.438 87.3423 267.434 86.4733L267.433 86.3269C267.428 84.9731 267.388 82.7595 267.325 79.6677C267.262 76.5759 267.222 74.3623 267.216 73.0085C267.212 71.9291 268.151 71.243 270.004 70.9137L269.981 65.6998L270.404 70.8405C271.125 70.7399 271.957 70.6942 272.919 70.6942C283.172 70.6942 288.318 74.1244 288.347 80.9758C288.356 83.0065 287.752 84.6896 286.545 86.0434L286.545 86.0342Z" fill="white"/>
<path d="M237.333 2.9492C231.94 2.75711 228.131 2.56501 225.905 2.37292C225.795 2.37292 225.614 2.34548 225.353 2.29974C225.093 2.25401 224.902 2.22656 224.802 2.22656C222.577 2.22656 220.837 3.19618 219.582 5.12626C218.428 7.05634 216.715 9.59015 214.463 12.7277C212.202 15.8652 210.389 18.5911 209.026 20.9054C207.663 23.3203 205.56 25.9272 202.715 28.7263C201.768 29.7874 200.978 30.3179 200.347 30.3179C199.605 30.3179 198.892 29.9063 198.197 29.0831C197.502 28.2598 196.785 27.1804 196.038 25.8266C195.291 24.4728 194.866 23.7044 194.755 23.5123C192.193 19.6888 190.257 16.8531 188.946 14.9871L188.425 14.923L188.16 13.8894C187.756 13.3314 187.454 12.9198 187.242 12.6545C185.116 9.85542 183.462 7.39479 182.29 5.27262C181.229 3.24192 178.889 2.23571 175.301 2.23571C174.329 2.23571 172.846 2.26315 170.852 2.31804L170.556 5.78487L170.541 2.32718C170.02 2.34548 169.469 2.35463 168.888 2.38207C165.871 2.48269 163.627 2.52843 162.143 2.52843H161.351C159.447 2.52843 158.336 2.86688 158.028 3.54378C157.611 4.41277 157.406 5.57448 157.412 7.01975C157.429 11.072 157.486 17.3471 157.572 25.8358C157.658 34.3245 157.715 40.508 157.731 44.3682C157.751 48.9053 157.605 57.083 157.285 68.9104C156.964 80.7288 156.822 89.684 156.848 95.7669L156.868 100.542C156.885 104.503 157.796 106.478 159.59 106.478C160.01 106.478 160.582 106.478 161.263 106.451L161.503 101.685L161.413 106.451C161.895 106.442 162.406 106.424 163.007 106.405C164.54 106.36 165.622 106.332 166.254 106.332C166.675 106.332 167.417 106.36 168.469 106.405C169.522 106.451 170.263 106.478 170.694 106.478C171.125 106.478 171.857 106.506 172.92 106.552C173.972 106.597 174.774 106.625 175.295 106.625C175.415 106.625 175.516 106.625 175.626 106.625L175.858 97.6055L176.047 106.616C177.991 106.533 179.021 106.103 179.108 105.335C179.203 104.082 179.277 102.536 179.329 100.706C179.371 98.8679 179.396 97.6696 179.394 97.0841C179.492 94.2851 179.54 89.1717 179.569 81.735C179.587 74.3073 179.696 69.3312 179.906 66.8248C179.905 66.4407 180.031 65.5259 180.295 64.0715C180.55 62.6262 180.737 61.9036 180.837 61.9036C181.158 61.9036 182.035 63.1293 183.469 65.59C184.903 68.0506 185.68 69.4776 185.782 69.8618C186.209 71.2156 186.928 72.8804 187.948 74.8562C188.959 76.832 190.03 78.8353 191.141 80.866C192.262 82.8967 192.929 84.1499 193.142 84.6255C193.567 85.7872 194.201 86.3635 195.053 86.3635C195.685 86.3635 196.424 85.9336 197.273 85.0646C197.591 84.5798 199.792 81.2502 203.895 75.0757C205.897 72.2766 208.096 68.3159 210.509 63.2025C212.607 59.3424 213.922 57.4123 214.453 57.4123C214.774 57.4123 214.927 58.0892 214.933 59.443C214.941 61.2724 214.742 64.0532 214.337 67.767C213.932 71.4808 213.674 74.4995 213.584 76.8137C213.191 83.473 213.008 94.3901 213.035 100.665C213.045 102.979 213.373 104.599 214.008 105.513C214.643 106.428 216.028 106.885 218.133 106.885C219.717 106.885 222.203 106.977 225.591 107.178C228.979 107.37 231.566 107.471 233.37 107.471C237.068 107.471 238.918 106.602 238.911 104.864C238.875 96.5672 238.92 83.7382 239.044 75.2953C239.169 66.8523 239.319 59.882 239.506 54.3754C239.693 48.8778 239.981 41.1575 240.36 31.2144C240.738 21.2713 241.026 13.4046 241.211 7.61433C241.211 7.42224 241.24 7.23014 241.289 7.03805C241.338 6.84596 241.368 6.6996 241.367 6.60812C241.357 4.19323 240.029 2.98579 237.383 2.98579L237.333 2.9492Z" fill="white"/>
<path d="M155.901 105.416C155.899 105.032 155.572 103.385 154.928 100.495C150.046 72.0284 143.841 41.138 136.292 7.84175C135.751 5.52748 134.873 4.08221 133.658 3.49678C132.523 2.95709 130.497 2.5912 127.59 2.38996L127.328 6.92702L127.309 2.37166C127.179 2.37166 127.048 2.35337 126.908 2.34422C126.808 2.34422 126.707 2.34422 126.607 2.33508L126.431 10.3024L126.166 2.31678C113.425 1.75879 103.773 1.48438 97.238 1.48438C97.1178 1.48438 97.0175 1.48438 96.8973 1.48438L96.1346 3.60655L96.296 1.49352C95.9953 1.50267 95.7248 1.53011 95.4844 1.55755L94.8271 9.57974L95.0237 1.63073C94.7032 1.68562 94.4229 1.74965 94.2328 1.84112C93.7027 2.07895 93.2845 2.73756 92.9683 3.79864C92.2382 6.4971 91.7167 8.76563 91.4138 10.6042C89.1614 27.6823 83.9928 56.5878 75.9179 97.3207L74.2105 105.864C74.2154 107.026 75.4306 107.602 77.866 107.602C79.0286 107.602 80.6421 107.575 82.7065 107.529C84.7709 107.483 86.4846 107.456 87.8577 107.456C89.4412 107.456 91.4559 107.483 93.8815 107.529C94.6232 107.547 95.2947 107.557 95.9162 107.566L96.0464 102.855L96.1467 107.575C96.287 107.575 96.4173 107.575 96.5576 107.575L96.6339 106.651L96.7681 107.575C97.8005 107.593 98.6424 107.593 99.2838 107.593C100.126 107.593 100.816 107.374 101.346 106.944C101.875 106.514 102.214 106.047 102.372 105.572C102.53 105.087 102.658 104.364 102.764 103.404C103.88 92.5001 105.166 83.9108 106.623 77.6357C107.037 75.9984 108.196 75.1294 110.099 75.0287C111.773 74.8641 113.275 74.7452 114.618 74.6445L114.77 72.5864L115.029 74.6171C116.722 74.5073 118.155 74.4433 119.298 74.4433C121.522 74.4433 122.95 75.358 123.589 77.1966C124.655 80.3799 126.114 86.6092 127.948 95.8754C128.163 96.8359 128.51 98.3086 128.999 100.294C129.479 102.269 129.836 103.742 130.05 104.712C130.508 106.358 131.665 107.291 133.5 107.538L133.467 99.7448L134.192 107.593C134.302 107.593 134.402 107.611 134.513 107.611C135.294 107.611 136.387 107.566 137.759 107.483L137.983 96.5798L138.03 107.465C138.03 107.465 138.07 107.465 138.09 107.465C139.623 107.364 140.755 107.319 141.497 107.319C142.659 107.319 144.454 107.364 146.89 107.465C149.325 107.566 151.23 107.611 152.603 107.611C154.828 107.611 155.927 106.889 155.921 105.444L155.901 105.416ZM122.989 49.3888C122.995 50.642 122.156 51.3189 120.462 51.4195C119.19 51.5202 117.396 51.5659 115.071 51.5659C113.297 51.5659 111.924 51.5293 110.891 51.447L108.969 51.9775L108.864 50.8158C108.451 50.4316 108.238 49.8553 108.235 49.0961C108.232 48.4192 108.387 47.2118 108.691 45.4738C110.34 34.9544 111.523 28.1488 112.252 25.0661C112.361 24.7734 112.59 24.4167 112.959 23.9776C113.328 23.5477 113.668 23.3281 113.988 23.3281C114.62 23.3281 115.151 23.4013 115.573 23.5477C115.994 23.694 116.346 23.9593 116.608 24.3435C116.871 24.7277 117.062 25.0387 117.164 25.2857C117.265 25.5235 117.427 25.9809 117.641 26.6578C120.322 35.055 122.097 42.3454 122.965 48.5198L122.969 49.3888H122.989Z" fill="white"/>
<path d="M60.1592 56.4944C59.2958 56.0005 58.8501 55.4599 58.8425 54.8728C58.84 54.6771 58.9497 54.4814 59.1615 54.2857C60.2241 52.8132 61.117 51.6297 61.8607 50.7443C67.2755 44.9383 69.9287 37.8183 69.8199 29.3562C69.763 24.9295 68.9577 21.0246 67.404 17.6324C65.8502 14.2401 63.4989 11.5095 60.3502 9.4499C57.2013 7.38099 53.894 5.68485 50.4384 4.36149C50.1718 4.25898 49.8849 4.16579 49.6081 4.06327L49.1968 14.1376L49.0648 3.86756C45.8267 2.79583 41.8677 1.99436 37.1675 1.48179C31.7725 0.894666 26.9003 0.49393 22.5409 0.298222C18.2835 0.102513 13.0786 0.00931943 6.93597 0L6.16704 2.88902L6.13013 0.0186393C5.81383 0.0186393 5.51817 0.037279 5.2225 0.0559179L4.44809 32.6739L4.0305 0.195707C1.3729 0.624401 0.031418 1.83593 0.0571804 3.83961C0.106428 7.66989 0.239047 14.0164 0.465119 22.8699C0.69119 31.7233 0.82309 38.014 0.87114 41.7511C0.955856 48.3399 1.21336 58.0507 1.65385 70.8836C2.08414 83.7165 2.35245 93.4739 2.43836 100.156C2.45609 101.535 2.51778 102.365 2.63385 102.663C2.75112 103.054 2.8882 103.399 3.05529 103.697C3.22238 103.996 3.43977 104.238 3.70757 104.434C3.97538 104.629 4.25279 104.778 4.5194 104.881C4.78589 104.974 5.16473 105.077 5.65582 105.179C6.1367 105.282 6.51507 105.347 6.79128 105.403C7.05717 105.449 7.51704 105.505 8.17066 105.552C8.81408 105.598 9.24299 105.626 9.46746 105.626C12.8584 105.887 16.4323 106.102 20.1691 106.279L20.0069 104.778L20.7612 106.307C20.9551 106.307 21.1288 106.325 21.3228 106.335L21.2179 106.111L23.9872 106.437C30.3675 106.68 37.1952 106.801 44.5315 106.801H44.6335L44.8402 106.214L44.8886 106.801H45.1233L45.0828 103.651L45.3784 106.801H48.7251C56.7947 106.698 63.2538 104.34 68.092 99.7179C72.9303 95.0955 75.3568 89.392 75.3818 82.6075L75.3382 79.2152C75.275 74.3038 73.7899 69.8957 70.8933 66.0189C67.9863 62.1327 64.4254 58.9641 60.1899 56.5037L60.1592 56.4944ZM24.9045 26.9984C24.8881 25.7216 25.1738 24.9295 25.7619 24.6406C26.3498 24.3424 27.5623 24.2026 29.3887 24.2026C29.8784 24.2026 30.3376 24.2026 30.8072 24.2212L30.7403 19.021L31.3481 24.2305C35.1656 24.3424 37.9469 24.799 39.6611 25.6005C41.6628 26.5324 42.6909 28.7225 42.7351 32.1614C42.7667 34.6217 42.0401 36.8304 40.5553 38.7968C38.5499 41.546 34.5271 42.9253 28.4968 42.9253C26.4561 42.9253 25.4186 42.3848 25.4047 41.3037C25.1349 36.9795 24.9701 32.8976 24.9208 29.058L24.8942 26.9891L24.9045 26.9984ZM45.2767 85.4033C44.0598 86.7826 42.4277 87.612 40.3807 87.9102C39.1996 88.1059 37.4765 88.2084 35.2215 88.2084H33.9257C31.0177 88.2084 28.8623 88.0127 27.4594 87.6213C26.3842 87.3231 25.8358 86.736 25.8244 85.8506L25.8225 85.7015C25.8048 84.3222 25.7452 82.0669 25.6537 78.9169C25.5621 75.767 25.5025 73.5117 25.4848 72.1324C25.4646 70.5574 27.3931 69.7746 31.2705 69.7746C41.7086 69.7746 46.9777 73.2694 47.0675 80.2496C47.0941 82.3185 46.4937 84.0333 45.2768 85.4126L45.2767 85.4033Z" fill="white"/>
<path fill-rule="evenodd" clip-rule="evenodd" d="M238.077 2.81305C237.945 2.96491 237.998 3.29971 238.15 3.43134C238.302 3.56298 238.495 3.4416 238.627 3.28974C238.759 3.13788 238.742 2.90806 238.59 2.77643C238.438 2.64479 238.209 2.66119 238.077 2.81305ZM8.95496 8.40642C8.95496 8.62443 8.71824 8.90585 8.50022 8.90585C8.28221 8.90585 8.10547 8.72911 8.10547 8.51109C8.10547 8.29307 8.28221 8.11633 8.50022 8.11633C8.71824 8.11633 8.95496 8.1884 8.95496 8.40642ZM21.5331 77.4533C21.5331 77.6713 21.2964 77.9527 21.0784 77.9527C20.8603 77.9527 20.6836 77.776 20.6836 77.558C20.6836 77.3399 20.8603 77.1632 21.0784 77.1632C21.2964 77.1632 21.5331 77.2353 21.5331 77.4533ZM49.1984 40.3101C49.4483 40.3101 49.7195 39.9876 49.7195 39.7378C49.7195 39.488 49.4483 39.4054 49.1984 39.4054C48.9486 39.4054 48.7461 39.6079 48.7461 39.8577C48.7461 40.1076 48.9486 40.3101 49.1984 40.3101ZM18.6327 38.6654C18.4439 38.5018 18.3779 38.0856 18.5416 37.8968C18.7052 37.708 18.9909 37.6877 19.1797 37.8513C19.3685 38.0149 19.3888 38.3006 19.2252 38.4894C19.0616 38.6782 18.8215 38.8291 18.6327 38.6654ZM61.4914 40.7554C61.7412 40.7554 62.0125 40.4329 62.0125 40.1831C62.0125 39.9333 61.7412 39.8507 61.4914 39.8507C61.2416 39.8507 61.0391 40.0532 61.0391 40.3031C61.0391 40.5529 61.2416 40.7554 61.4914 40.7554ZM10.2401 47.6654C10.0514 47.5018 9.98537 47.0856 10.149 46.8968C10.3126 46.708 10.5983 46.6877 10.7871 46.8513C10.9759 47.0149 10.9963 47.3006 10.8326 47.4894C10.669 47.6782 10.4289 47.8291 10.2401 47.6654ZM47.2154 63.0531C47.0518 63.2419 47.1178 63.658 47.3066 63.8217C47.4953 63.9853 47.7354 63.8344 47.899 63.6456C48.0627 63.4569 48.0423 63.1712 47.8535 63.0075C47.6647 62.8439 47.379 62.8643 47.2154 63.0531ZM117.322 67.5717C117.133 67.408 117.067 66.9919 117.231 66.8031C117.395 66.6143 117.68 66.5939 117.869 66.7575C118.058 66.9212 118.078 67.2069 117.915 67.3956C117.751 67.5844 117.511 67.7353 117.322 67.5717ZM106.133 31.3968C105.97 31.5856 106.036 32.0018 106.225 32.1654C106.413 32.3291 106.653 32.1782 106.817 31.9894C106.981 31.8006 106.96 31.5149 106.771 31.3513C106.583 31.1877 106.297 31.2081 106.133 31.3968ZM150.215 82.6498C150.026 82.4862 149.96 82.07 150.124 81.8812C150.287 81.6924 150.573 81.672 150.762 81.8357C150.95 81.9993 150.971 82.285 150.807 82.4738C150.644 82.6625 150.404 82.8134 150.215 82.6498ZM169.915 19.4593C169.751 19.6481 169.817 20.0643 170.006 20.2279C170.195 20.3916 170.435 20.2407 170.598 20.0519C170.762 19.8631 170.742 19.5774 170.553 19.4138C170.364 19.2502 170.078 19.2706 169.915 19.4593ZM188.82 25.7748C188.631 25.6112 188.565 25.195 188.729 25.0062C188.893 24.8174 189.178 24.797 189.367 24.9607C189.556 25.1243 189.576 25.41 189.413 25.5988C189.249 25.7875 189.009 25.9384 188.82 25.7748ZM163.419 48.7015C163.255 48.8903 163.321 49.3065 163.51 49.4701C163.698 49.6337 163.939 49.4829 164.102 49.2941C164.266 49.1053 164.245 48.8196 164.057 48.656C163.868 48.4924 163.582 48.5127 163.419 48.7015ZM255.578 98.4232C255.389 98.2596 255.323 97.8434 255.487 97.6546C255.651 97.4659 255.936 97.4455 256.125 97.6091C256.314 97.7727 256.334 98.0584 256.171 98.2472C256.007 98.436 255.767 98.5869 255.578 98.4232ZM143.265 104.482C143.174 104.404 143.142 104.204 143.221 104.113C143.3 104.023 143.437 104.013 143.527 104.091C143.618 104.17 143.628 104.307 143.549 104.398C143.471 104.488 143.355 104.561 143.265 104.482ZM150.498 98.8085C150.42 98.8991 150.451 99.0989 150.542 99.1774C150.633 99.256 150.748 99.1835 150.827 99.0929C150.905 99.0023 150.895 98.8652 150.805 98.7866C150.714 98.708 150.577 98.7178 150.498 98.8085ZM79.8827 108.267C79.6939 108.103 79.6279 107.687 79.7916 107.498C79.9552 107.31 80.2409 107.289 80.4297 107.453C80.6185 107.616 80.6388 107.902 80.4752 108.091C80.3116 108.28 80.0715 108.431 79.8827 108.267ZM82.1369 106.419C82.0997 106.462 82.1147 106.556 82.1576 106.593C82.2004 106.63 82.255 106.596 82.2921 106.553C82.3293 106.51 82.3246 106.446 82.2818 106.408C82.2389 106.371 82.174 106.376 82.1369 106.419ZM80.0521 106.07C80.0092 106.033 79.9943 105.938 80.0314 105.895C80.0686 105.852 80.1334 105.848 80.1763 105.885C80.2192 105.922 80.2238 105.987 80.1866 106.03C80.1495 106.073 80.095 106.107 80.0521 106.07ZM94.0314 87.8719C93.9943 87.9148 94.0092 88.0093 94.0521 88.0464C94.095 88.0836 94.1495 88.0493 94.1866 88.0064C94.2238 87.9636 94.2192 87.8987 94.1763 87.8616C94.1334 87.8244 94.0686 87.829 94.0314 87.8719ZM55.1817 45.5578C55.1817 45.7016 55.0255 45.8873 54.8816 45.8873C54.7377 45.8873 54.6211 45.7707 54.6211 45.6268C54.6211 45.483 54.7377 45.3663 54.8816 45.3663C55.0255 45.3663 55.1817 45.4139 55.1817 45.5578ZM10.6154 38.5579C10.5211 38.6666 10.5591 38.9063 10.6679 39.0005C10.7766 39.0947 10.9148 39.0078 11.0091 38.8991C11.1033 38.7904 11.0916 38.6259 10.9828 38.5316C10.8741 38.4374 10.7096 38.4491 10.6154 38.5579Z" fill="white"/>
</svg>
